<svg version="1.1" xmlns="http://www.w3.org/2000/svg" viewBox="0 0 262.45529011096414 497.3794589311838" width="262.45529011096414" height="497.3794589311838">
  <!-- svg-source:excalidraw -->
  <rect x="0" y="0" width="262.45529011096414" height="497.3794589311838" fill="#ffffff"></rect><g stroke-linecap="round" transform="translate(10 78.94927583353723) rotate(0 121.22764505548207 18.037223454573905)"><path d="M0 0 C0 0, 0 0, 0 0 M0 0 C0 0, 0 0, 0 0 M-0.32 6.2 C2.24 4.62, 3.93 2.39, 4.32 0.31 M-0.52 6.54 C0.7 5.16, 2.31 3.59, 4.61 0.63 M-0.92 12.01 C3.79 8.17, 5.6 7.54, 9.48 1.24 M-0.13 12.28 C3.8 7.66, 6.19 4.86, 11.22 0.72 M0.31 17.12 C2.96 15.34, 6.94 11.17, 14.87 0.85 M0.23 19.16 C5.42 13.75, 10.03 7.92, 16.1 -0.36 M1.72 25.7 C5.14 16.59, 12.52 6.47, 22.56 1.35 M0.15 23.61 C8.68 14.05, 15.75 5.54, 20.91 -0.65 M-1.37 30.24 C9.2 23.58, 16.58 11.78, 25.3 0.44 M-0.03 31.34 C7.5 21.96, 13.84 13.74, 27.11 -0.13 M1.21 36.84 C8.46 26.61, 14.55 20.62, 33.71 1.14 M0.74 36.91 C6.78 29.46, 13.99 20.86, 31.68 -0.61 M3.71 34.73 C13.83 24.63, 23.45 16.33, 38.12 1.71 M5.92 36.51 C17.52 23.3, 27.9 9.61, 36.79 0.27 M9.37 35.93 C20.12 24.03, 28.01 15.71, 43.3 -0.8 M11.69 35.77 C18.61 27.99, 25.18 20.88, 42.88 -0.34 M14.36 36.73 C25.69 28.38, 33.57 16.1, 46.65 -0.99 M15.23 36.37 C21.86 28.39, 29.13 22.31, 48.14 -0.7 M23.18 37.27 C30.47 24.7, 42.8 10.64, 52.84 -1.55 M21.46 35.79 C31.92 24.5, 42.03 12.11, 53.57 0.2 M24.93 37.1 C32.16 28.77, 39.21 21.78, 60.05 0.34 M27.64 36.06 C34.12 27.95, 40.29 20.01, 58.5 0.35 M33.93 36.75 C40.87 24.37, 55.16 12.57, 62.65 0.5 M31.32 35.42 C40.13 25.32, 49.95 15.11, 63.63 -0.52 M37.91 37.3 C45.66 27.33, 54.21 15.12, 69.35 1.37 M36.96 37.11 C48.49 22.06, 60.44 8.9, 68.54 0.72 M42.75 37.9 C56.16 21.75, 64.41 7.59, 73.93 -0.43 M43.88 35.02 C50.31 26.15, 58.97 16.48, 74.76 -0.62 M48.6 35.43 C60.06 21.43, 70.47 10.36, 77.4 -0.57 M48.85 36.48 C57.82 25.16, 67.55 12.99, 79.26 0.64 M54.63 37.93 C61.92 26.38, 72.79 15.49, 86.71 0.57 M54.08 35.89 C63.23 24.91, 71.84 15.05, 85.5 0.24 M59.16 36.27 C70.5 22.2, 79.21 9.36, 88.91 -0.52 M57.77 35.54 C71.47 22.61, 82.97 6.81, 90.97 0.25 M64.39 37.67 C72.81 26.62, 81.52 15.65, 93.87 1.05 M64.16 35.23 C70.46 27.24, 78.14 17.81, 96.22 -0.24 M68.59 37.27 C76.73 28.62, 81.4 19.99, 100.43 0.16 M70.03 37.08 C81.89 22.75, 93.05 8.61, 100.34 0.63 M74.07 36.41 C83.74 26.25, 90.38 17.54, 107.12 1.22 M74.08 35.93 C80.04 28.51, 87.67 20.81, 106.1 0.13 M78.72 34.49 C87.52 26.42, 95.39 19.45, 110.33 -0.24 M80.75 36.33 C87.83 26.57, 96.46 16.6, 111.35 0.76 M85.47 34.78 C99.24 21.77, 110.02 8.86, 114.36 -1.29 M85.05 36.53 C96.54 21.66, 108.58 9.52, 115.51 -0.35 M92.26 36.69 C97.34 28.18, 103.52 19.72, 120.87 -1.77 M90.9 35.93 C96.91 27.69, 103.81 19.37, 122.3 0.56 M94.31 37.37 C103.79 24.08, 113.62 15.94, 128.33 -0.46 M94.68 36.78 C105.75 25.55, 115.42 12.86, 127.61 0.84 M102.73 35.26 C111.98 22.62, 126.05 8.2, 132.1 -0.83 M100.25 36.93 C112.21 21.64, 124.9 10.02, 132.83 -0.13 M106.78 35.65 C115.48 25.95, 125.79 13.99, 136.6 0.63 M106.52 35.55 C116.25 24.55, 124.3 13.33, 137.41 -0.15 M112.5 34.25 C119.18 24.53, 129.23 17.59, 143.97 -0.16 M112.43 35.82 C120.28 26.28, 128.9 16.67, 142.9 -0.55 M116.93 34.76 C128.61 21.94, 137.67 10.7, 146.28 0.82 M116.5 36.68 C128.47 23.57, 140.27 9.85, 147.43 0.55 M122.79 36.39 C130.61 25.11, 138.42 13.79, 154.22 1.15 M121.87 35.52 C131.78 26.29, 140 15.9, 153.81 -0.04 M128.66 35.49 C136.36 28.03, 146.31 13.66, 157.29 -0.4 M127.83 35.91 C136.79 26.02, 144.12 17.47, 158 0.18 M131.67 37.03 C141.81 23.65, 153.15 14.72, 164.47 1.67 M132.84 36.33 C141.87 26.2, 153.08 13.56, 165.18 -0.98 M137.69 36.27 C143.57 29.93, 149.46 21.32, 168.43 -0.87 M138.07 35.9 C149.54 23.16, 160.75 10.13, 170.27 0.44 M144.04 34.21 C155.43 24.19, 162.1 12.86, 174.18 -0.37 M144.44 37.03 C151.2 25.7, 160.2 15.28, 175.96 0.15 M149.61 35.22 C157.1 27.43, 166.51 14.24, 179.31 -1.79 M148.12 37.23 C155.87 27.1, 163.09 18.81, 179.24 0.44 M153.64 34.6 C159.29 28.38, 166.02 19.74, 186.64 -1.09 M153.6 35.77 C163.23 23.84, 173.39 13.79, 185.43 -0.2 M157.84 36.1 C171.01 25.14, 179.9 11.88, 192.41 -1.7 M159.19 35.42 C171.38 23.93, 180.97 10.22, 190.72 -0.29 M165.08 35.53 C172.95 25.98, 183.99 14.35, 194.98 -0.95 M164.07 35.15 C175.15 24.07, 185.75 12.03, 196.19 0.32 M169.63 38.31 C176.65 25.77, 184.97 19.81, 203.03 1.52 M169.81 35.89 C176.54 27.85, 183.99 20.6, 200.35 -0.8 M175.79 35 C182.96 30.36, 190.1 22.4, 208.2 1.26 M175.43 35.19 C182.72 28.47, 189.79 20.57, 207.17 -0.99 M180.1 34.93 C187.19 26.36, 195.96 19.06, 213.33 0.64 M180.87 36.99 C190.75 23.15, 201.43 10.82, 212.61 0.28 M185.39 38.42 C193.4 26.84, 201.06 17.47, 217.12 -1.63 M185.44 37.07 C193.24 25.7, 202.04 16.43, 216.65 -0.92 M190.21 34.68 C200.54 28.15, 206.8 17.35, 222.31 1.09 M190.56 37.01 C202.28 24.87, 212.36 11.89, 221.8 -0.24 M196.33 37.58 C202.41 27.39, 213.41 20.3, 228.41 0.9 M195.64 37.16 C208.8 23.81, 219.54 10.04, 229.2 -1.34 M200.75 35.95 C209.63 28.34, 218.99 18.01, 231.82 -1.04 M201.41 37.12 C212.28 23.89, 224.88 9.7, 233.06 0.85 M207.9 37.19 C215.9 27.11, 220.16 20.88, 237.93 -0.23 M206.46 36.48 C220.29 21.51, 231.94 6.98, 238.09 0.56 M210.35 36.78 C217.31 30.01, 223.32 22.36, 243.88 -0.25 M213.28 36.46 C221.63 25.82, 232.4 12.79, 242.67 0.95 M216.94 37.88 C225.99 25.78, 235.77 14.37, 241.45 8.08 M216.78 36.73 C222.59 30.66, 229.15 23.55, 242.98 7.05 M221.51 36.86 C227.82 27.04, 235.9 22.28, 242.84 13.41 M222.34 37.05 C228.77 28.21, 234.87 22.12, 243.24 13.68 M227.08 34.91 C233.17 29.21, 237.38 25.77, 241.82 20.55 M228.33 36.04 C231.43 32.38, 236.15 26.6, 242.09 18.25 M234.31 35.69 C234.51 32.41, 238.27 32.26, 244.55 24.72 M233.99 36.68 C235.81 32.43, 238.54 29.36, 244.03 24.35 M238.68 36.39 C239.64 35.97, 240.4 34.5, 242.66 31.84 M238.61 36.3 C240.25 34.67, 241.4 33.25, 243.44 31.03" stroke="#fab005" stroke-width="0.5" fill="none"></path><path d="M-0.49 -0.92 C86.61 -1.17, 172.8 0.6, 243.4 -0.67 M-0.66 0.56 C72.57 1.14, 145.37 0.76, 242 -0.66 M244.38 -1.75 C242.88 10.77, 244.33 18.14, 242.95 35.09 M242.49 -0.02 C242.75 13.04, 242.34 25.64, 241.53 35.86 M243.84 36.93 C187.32 36.88, 131.89 37.47, 0.02 36.17 M242.56 35.39 C167.54 33.83, 91.5 34.02, 0.65 35.58 M1.77 35.51 C2.1 22.67, 0.45 10.03, 0.69 1.16 M0.48 35.99 C0.65 24.86, -0.68 15.27, -0.72 0.07" stroke="#e67700" stroke-width="1" fill="none"></path></g><g transform="translate(96.22716766883696 88.22440776527588) rotate(0 39.5 10)"><text x="0" y="14" font-family="Virgil, Segoe UI Emoji" font-size="16px" fill="#000000" text-anchor="start" style="white-space: pre;" direction="ltr">$gateway</text></g><g stroke-linecap="round"><g transform="translate(131.8328695454136 21.98783825189531) rotate(0 0 29.561312339109463)"><path d="M0 0 C0 9.85, 0 49.27, 0 59.12 M0 0 C0 9.85, 0 49.27, 0 59.12" stroke="#d9480f" stroke-width="1" fill="none"></path></g><g transform="translate(131.8328695454136 21.98783825189531) rotate(0 0 29.561312339109463)"><path d="M-10.11 31.34 C-7.52 38.45, -4.94 45.55, 0 59.12 M-10.11 31.34 C-6.91 40.13, -3.71 48.92, 0 59.12" stroke="#d9480f" stroke-width="1" fill="none"></path></g><g transform="translate(131.8328695454136 21.98783825189531) rotate(0 0 29.561312339109463)"><path d="M10.11 31.34 C7.52 38.45, 4.94 45.55, 0 59.12 M10.11 31.34 C6.91 40.13, 3.71 48.92, 0 59.12" stroke="#d9480f" stroke-width="1" fill="none"></path></g></g><g stroke-linecap="round"><g transform="translate(133.47104449185213 358.59621291013053) rotate(0 -4.2749656381621435 63.54494398333435)" fill-rule="evenodd"><path d="M-55.61 23.21 C-55.61 23.21, -55.61 23.21, -55.61 23.21 M-55.61 23.21 C-55.61 23.21, -55.61 23.21, -55.61 23.21 M-56.86 28.99 C-53.32 28.58, -53.48 24.82, -47.03 18.6 M-55.51 29.43 C-53.24 25.83, -50.85 22.77, -46.98 20.41 M-56.05 36.09 C-48.65 28.1, -43.7 23.05, -37.08 14.75 M-55.9 35.32 C-51.68 32.32, -48.73 28.32, -39.21 15.64 M-58.33 43.37 C-46.17 31.45, -40.06 22.91, -30.17 11.22 M-56.18 42.67 C-47.23 33.08, -39.62 22.24, -29.96 12.1 M-54.91 47.68 C-43.49 34.01, -28.7 19.05, -24.46 10.68 M-56.56 48.16 C-44.43 34.34, -31.39 21.17, -22.95 9.56 M-54.9 53.6 C-44.63 42.59, -35.92 31.54, -15.86 5.62 M-57.14 54.53 C-40.71 37.05, -26.49 18.68, -14.77 6.65 M-56.57 62.08 C-45.39 49.04, -34.92 34.58, -6.44 1.25 M-56.01 60.64 C-37.68 37.94, -18.28 16.62, -5.95 2.85 M-57.77 68.32 C-43.77 52.08, -30.03 37.43, -0.23 2.57 M-56.41 67.48 C-40.25 48.48, -24.22 30.99, 1.53 0.73 M-56.56 73.55 C-44.43 55.69, -29.68 41.33, 4.77 1.21 M-56.96 73.13 C-39.21 52.78, -22.12 33.3, 3.7 2.94 M-55.77 80.12 C-37.6 60.55, -21.43 40.95, 8.04 6.17 M-56.89 79.97 C-31.58 50.88, -6.49 20.97, 8.23 4.12 M-55.55 83.27 C-28.68 55.53, -3.16 24.44, 13.35 5.19 M-56.27 85.67 C-34.28 59.64, -10.24 32.55, 12.77 6.4 M-55.91 93.01 C-30.35 58.72, 0.06 27.57, 16.89 7.33 M-57.18 91.14 C-38.11 70.49, -20.18 49.19, 15.25 9.16 M-55.34 99.09 C-31.91 71.59, -9.15 45.04, 17.3 11.46 M-55.97 96.75 C-32.31 69.04, -9.59 42.96, 19.38 11.68 M-54.71 101.88 C-25.76 65.65, 5.52 30.36, 21.19 12.4 M-53.88 101.27 C-30.7 75.4, -9.41 47.58, 22.42 12.42 M-48.37 103.69 C-25.23 72.41, 0.43 43.61, 25.17 13.44 M-49.73 102.44 C-29.81 77.44, -7.63 54.87, 26.64 13.7 M-44.84 103.3 C-29.47 87.03, -16.59 68.18, 28.69 16.66 M-47.29 103.57 C-19.75 73.34, 8.47 43.63, 30.42 17.17 M-43.34 107.77 C-23.24 82.3, -4.36 60.29, 33.39 18.5 M-43.47 106.6 C-13.94 72.38, 16.98 39.74, 33.03 17.55 M-40.36 109.77 C-22.27 87.89, -2.68 66.77, 36.64 19.31 M-39.57 109.49 C-15.23 81.97, 7.64 52.53, 36.43 19.32 M-36.2 109.63 C-10.15 80.41, 19.88 49.4, 38.88 22.9 M-35.43 109.48 C-15.3 85.77, 4.63 61.77, 40.03 22.48 M-32.89 111.92 C-7.4 83.72, 15.96 58.19, 44.47 22.92 M-32.02 111.82 C-9.82 86, 13.68 60.47, 43.81 23.98 M-30.06 116.5 C-1.32 81.03, 27.6 48.65, 48.4 26.55 M-28.98 113.97 C-6.79 88.78, 16.35 60.84, 48.42 25.68 M-26.87 115.06 C-3.15 90.52, 20.39 62.65, 47.17 32.25 M-25.22 116.32 C-1.38 89.43, 20.73 64.39, 48.41 33.16 M-20.54 117.23 C3.52 86.79, 31.49 58.19, 48.68 40.08 M-21.04 119.41 C-3.15 96.32, 15.12 75.6, 47.45 38.29 M-20.9 119.87 C2.59 94.5, 24.44 70.19, 46.53 46.72 M-19.44 121.41 C2.45 95.7, 25.28 70.74, 46.94 45.32 M-15.04 122.35 C3.08 101, 19.45 82.75, 48.72 50.9 M-14.32 122.55 C6.67 98.64, 27.81 75.4, 48.1 50.54 M-11.75 126.69 C5.04 104.73, 24.11 83.5, 48.44 58.09 M-11.65 125.4 C0.8 108.66, 14.1 93.46, 47.11 58.04 M-9.5 128.04 C9.42 107.95, 22.6 91.62, 47.49 63.41 M-7.08 126.55 C8.5 108.29, 23.93 90.13, 47.83 62.88 M-5.65 127.05 C15.27 104.8, 33.3 84.44, 47.04 68.33 M-3.79 129.07 C11.24 110.72, 26.01 94.11, 46.95 70.85 M7.56 123.84 C20.39 105.98, 33.7 92.08, 48.44 74.64 M5.84 123.72 C15.46 111.11, 26.11 99.83, 48.07 74.67 M14.78 116.26 C27.26 104.32, 39.34 89.72, 47.97 81.06 M15.31 117.25 C24.92 106.93, 35.11 96.31, 46.9 81.7 M26.6 110.74 C34.11 102.73, 40.81 96.14, 48.25 90.29 M25.51 112.56 C30.42 106.76, 35.39 100.98, 45.93 89.19 M36.56 105.63 C38.28 101.97, 44.04 97.81, 45.42 93.86 M36.84 105.93 C40.67 101.01, 44.51 96.96, 45.85 94.17" stroke="#40c057" stroke-width="0.5" fill="none"></path><path d="M-1.81 -1.69 C-16.95 8.53, -35.64 12.45, -55.05 21.73 M0.29 0.04 C-13.82 5.93, -26.93 12.15, -55.42 23.31 M-54.92 25.43 C-57.33 52.3, -57.51 79.64, -56.51 97.55 M-55.32 22.8 C-55.23 42.84, -56.19 64.36, -57.33 96.74 M-56.71 99.41 C-38.57 105.68, -23.28 115.55, -8.8 128.78 M-56.87 97.34 C-37.18 108.87, -20.98 119.33, -6.76 127.03 M-7.54 127.04 C11.13 119.79, 24.78 108.64, 47.26 98.1 M-6.31 127.02 C7.88 119.07, 21.69 110.58, 47.27 96.72 M46.29 98.74 C45.96 80.44, 46.97 61.33, 48.78 27.2 M46.46 96.16 C46.45 82.26, 47.73 66.39, 47.82 26.17 M46.91 25.44 C29.98 17.83, 15.6 8.42, -1.59 1.11 M48.35 26.1 C32.34 18.4, 15.86 9.61, 0.94 -0.12 M0 0 C0 0, 0 0, 0 0 M0 0 C0 0, 0 0, 0 0" stroke="#087f5b" stroke-width="1" fill="none"></path></g></g><g stroke-linecap="round"><g transform="translate(71.31436583738628 277.04653612803855) rotate(0 55.1393539206216 -0.05076758238340062)"><path d="M0 0 C18.38 -0.02, 91.9 -0.08, 110.28 -0.1 M0 0 C18.38 -0.02, 91.9 -0.08, 110.28 -0.1" stroke="#1864ab" stroke-width="1" fill="none"></path></g></g><g stroke-linecap="round"><g transform="translate(71.8814138447151 276.89898689890464) rotate(0 -1.6341952245329594 -17.90824203737145)"><path d="M0 0 C-1.05 -0.28, -4.85 -0.96, -6.29 -1.68 C-7.74 -2.4, -7.98 -3.1, -8.67 -4.32 C-9.37 -5.55, -10.26 -6.44, -10.47 -9.05 C-10.68 -11.67, -10.34 -17.35, -9.93 -20.01 C-9.52 -22.68, -9.18 -23.2, -8.01 -25.04 C-6.85 -26.87, -4.95 -29.29, -2.95 -31.03 C-0.94 -32.77, 2.32 -34.77, 4.02 -35.5 C5.72 -36.24, 6.72 -35.45, 7.26 -35.44 M0 0 C-1.05 -0.28, -4.85 -0.96, -6.29 -1.68 C-7.74 -2.4, -7.98 -3.1, -8.67 -4.32 C-9.37 -5.55, -10.26 -6.44, -10.47 -9.05 C-10.68 -11.67, -10.34 -17.35, -9.93 -20.01 C-9.52 -22.68, -9.18 -23.2, -8.01 -25.04 C-6.85 -26.87, -4.95 -29.29, -2.95 -31.03 C-0.94 -32.77, 2.32 -34.77, 4.02 -35.5 C5.72 -36.24, 6.72 -35.45, 7.26 -35.44" stroke="#1864ab" stroke-width="1" fill="none"></path></g></g><g stroke-linecap="round"><g transform="translate(79.1645063441481 240.4390781924098) rotate(0 22.67254021369149 -18.4735961699854)"><path d="M0 0 C-0.61 -2.15, -3.03 -9.58, -3.68 -12.91 C-4.34 -16.24, -4.17 -18.08, -3.92 -19.97 C-3.66 -21.86, -3.4 -22.4, -2.17 -24.26 C-0.94 -26.12, 1.48 -29.36, 3.49 -31.12 C5.5 -32.87, 7.77 -33.88, 9.88 -34.8 C12 -35.72, 13.26 -36.3, 16.2 -36.62 C19.14 -36.94, 23.74 -37.12, 27.51 -36.71 C31.29 -36.3, 36.44 -34.96, 38.85 -34.17 C41.26 -33.38, 40.22 -34.47, 41.99 -31.97 C43.77 -29.46, 48.24 -21.26, 49.48 -19.12 M0 0 C-0.61 -2.15, -3.03 -9.58, -3.68 -12.91 C-4.34 -16.24, -4.17 -18.08, -3.92 -19.97 C-3.66 -21.86, -3.4 -22.4, -2.17 -24.26 C-0.94 -26.12, 1.48 -29.36, 3.49 -31.12 C5.5 -32.87, 7.77 -33.88, 9.88 -34.8 C12 -35.72, 13.26 -36.3, 16.2 -36.62 C19.14 -36.94, 23.74 -37.12, 27.51 -36.71 C31.29 -36.3, 36.44 -34.96, 38.85 -34.17 C41.26 -33.38, 40.22 -34.47, 41.99 -31.97 C43.77 -29.46, 48.24 -21.26, 49.48 -19.12" stroke="#1864ab" stroke-width="1" fill="none"></path></g></g><g stroke-linecap="round"><g transform="translate(128.0178899839632 220.71592394793612) rotate(0 21.093976415523343 4.928553940659128)"><path d="M0 0 C1.03 -0.66, 3.69 -3.05, 6.16 -3.98 C8.64 -4.9, 10.36 -5.62, 14.86 -5.55 C19.37 -5.49, 29.01 -4.71, 33.19 -3.59 C37.37 -2.47, 38.44 -2.02, 39.93 1.15 C41.43 4.32, 41.81 13.04, 42.19 15.41 M0 0 C1.03 -0.66, 3.69 -3.05, 6.16 -3.98 C8.64 -4.9, 10.36 -5.62, 14.86 -5.55 C19.37 -5.49, 29.01 -4.71, 33.19 -3.59 C37.37 -2.47, 38.44 -2.02, 39.93 1.15 C41.43 4.32, 41.81 13.04, 42.19 15.41" stroke="#1864ab" stroke-width="1" fill="none"></path></g></g><g stroke-linecap="round"><g transform="translate(180.78480025978547 276.94889334591284) rotate(0 5.210724578544614 -22.100918504080596)"><path d="M0 0 C1.65 -0.9, 7.15 -3.23, 9.93 -5.37 C12.71 -7.52, 15.18 -10.46, 16.67 -12.87 C18.16 -15.28, 18.49 -17.02, 18.85 -19.85 C19.22 -22.67, 19.43 -26.86, 18.86 -29.82 C18.28 -32.78, 17.09 -35.37, 15.41 -37.59 C13.74 -39.8, 11.04 -42, 8.82 -43.09 C6.59 -44.19, 4.47 -44.3, 2.06 -44.15 C-0.34 -44, -3.81 -42.86, -5.62 -42.2 C-7.43 -41.54, -8.26 -40.52, -8.79 -40.19 M0 0 C1.65 -0.9, 7.15 -3.23, 9.93 -5.37 C12.71 -7.52, 15.18 -10.46, 16.67 -12.87 C18.16 -15.28, 18.49 -17.02, 18.85 -19.85 C19.22 -22.67, 19.43 -26.86, 18.86 -29.82 C18.28 -32.78, 17.09 -35.37, 15.41 -37.59 C13.74 -39.8, 11.04 -42, 8.82 -43.09 C6.59 -44.19, 4.47 -44.3, 2.06 -44.15 C-0.34 -44, -3.81 -42.86, -5.62 -42.2 C-7.43 -41.54, -8.26 -40.52, -8.79 -40.19" stroke="#1864ab" stroke-width="1" fill="none"></path></g></g><g stroke-opacity="0.5" fill-opacity="0.5" stroke-linecap="round" transform="translate(79.99739510861787 383.9780689219061) rotate(0 49 15)"><path d="M0 0 C0 0, 0 0, 0 0 M0 0 C0 0, 0 0, 0 0 M-1.27 12.66 C1.17 10.16, 4.88 7.26, 11.1 1.21 M-0.56 12.81 C1.79 9.42, 5.25 6.44, 10.2 0.47 M1.4 25.24 C7.62 15.88, 12.56 8.87, 20.75 -0.13 M0.27 23.37 C7.96 14.17, 16.81 5.33, 22.22 -0.63 M2.51 34.48 C14.85 23.61, 21.69 10.22, 32.78 1.52 M3.53 32.2 C9.63 26.03, 15.53 19.36, 32.27 0.11 M12.17 34.61 C24.27 23.81, 34.09 10.76, 42.56 -1.3 M13.77 32.4 C22.59 21.96, 32.34 11.53, 41.8 0.33 M26.03 32.42 C30.54 26.65, 37.92 18.55, 53.72 0.17 M24.19 32.16 C34.93 20.21, 46.92 6.93, 52.43 -1.17 M33.43 32.68 C44.75 21.18, 52.32 12.41, 63.8 -1.34 M35.16 32.63 C42.41 24.46, 51.41 15.26, 64.56 0.39 M47.15 34.66 C56.59 21.85, 63.99 12.38, 75.81 0.38 M45.1 33.73 C56.01 19.79, 68 7.05, 75.08 -0.39 M54.93 33.57 C66.99 19.49, 77.2 10.37, 83.81 0.36 M56.14 33.91 C67.8 19.81, 78.56 8.42, 84.1 -0.33 M65.07 31.95 C75.48 22.98, 82.77 12.1, 96.45 -0.05 M66.9 32.97 C76.6 22.43, 86.33 12.01, 96.65 0.1 M77.96 33.18 C85.55 23.71, 97.66 9.52, 102.64 2.77 M78.19 33.82 C82.76 26.77, 86.85 21.86, 101.5 4.14 M87.67 32.86 C93.82 27.06, 95.65 25.82, 104.29 18.11 M87.69 33.27 C91.95 29.09, 95.42 26.17, 102.07 16.4" stroke="#40c057" stroke-width="1" fill="none"></path><path d="M1.92 -0.37 C34.02 -1.47, 68.58 0.17, 96.61 0.28 M96.31 -1.81 C99.28 7.48, 96.44 12.03, 99.28 31.65 M96.16 30.56 C77.38 28.44, 57.11 29.7, -0.44 28.03 M1.89 30.6 C0.83 23.37, 0.31 17.17, 1.92 -1.45" stroke="#087f5b" stroke-width="2.5" fill="none" stroke-dasharray="8 10"></path></g><g stroke-opacity="0.5" fill-opacity="0.5" stroke-linecap="round" transform="translate(79.99589526391424 424.48919420076726) rotate(0 47.5 15)"><path d="M0 0 C0 0, 0 0, 0 0 M0 0 C0 0, 0 0, 0 0 M1.62 13.5 C4.56 6.66, 5.37 2.94, 11.17 1.22 M-0.48 11.87 C2.41 8.9, 5.97 5.46, 9.96 -0.74 M2.22 25.33 C7.05 19.45, 10.02 10.32, 22.33 -0.01 M-0.54 23.99 C7.76 15.71, 16.02 6.58, 20.43 -0.15 M4.57 33.89 C10.91 22.05, 18.7 15.3, 33.22 -0.74 M3.54 33.46 C13.25 20.56, 24.02 9.77, 31.06 0.04 M11.75 32.21 C23.52 17.93, 37.14 8.29, 40.94 -0.3 M14.59 33.7 C20.36 24.72, 28.48 16.46, 43.28 0.47 M23.59 32.72 C28.59 27, 36.12 20.13, 52.76 -0.7 M24.62 33.45 C32.54 22.97, 40.32 15.43, 52.29 0.17 M35.57 34.91 C42.27 23.17, 50.78 15.17, 65.76 -0.92 M34.31 33.36 C46.21 20.78, 56.93 8.78, 64.6 0.16 M46.54 31.83 C52 25.53, 57.62 19.57, 72.48 -1.44 M44.94 32.81 C51.53 25.85, 58.09 17.92, 74.73 0.22 M56.25 33.51 C64.4 26.6, 71.97 18.05, 84.41 1.19 M57.04 32.7 C63.32 26.36, 69 17.14, 84.95 0.68 M64.92 32.42 C77.33 20.29, 88.76 8.28, 96.94 -1.48 M66.15 33.24 C73.02 26.39, 80.06 17.31, 95.36 -0.01 M78.85 30.87 C82.38 27.16, 88.03 19.65, 97.03 12.75 M77.5 32.72 C82.45 27.84, 86.85 22.14, 95.69 13.47 M89.08 33.75 C90.18 30.66, 91.55 29.44, 95.86 24.46 M87.91 33.08 C91.16 29.88, 93.24 26.69, 95.45 24.52" stroke="#40c057" stroke-width="1" fill="none"></path><path d="M0.47 -0.75 C27.32 0.07, 53.74 0.53, 95.71 1.44 M96.52 0.96 C93.92 11.59, 95.61 20.99, 96.46 31.61 M93.04 31.3 C77.15 30.84, 58.38 30.28, -0.23 29.05 M-0.61 29.3 C-0.9 18.3, 0.29 9.2, -1.38 -0.24" stroke="#087f5b" stroke-width="2.5" fill="none" stroke-dasharray="8 10"></path></g><g transform="translate(96.49739510861787 388.9780689219061) rotate(0 32.5 10)"><text x="32.5" y="14" font-family="Virgil, Segoe UI Emoji" font-size="16px" fill="#000000" text-anchor="middle" style="white-space: pre;" direction="ltr">Services</text></g><g transform="translate(92.49589526391424 429.48919420076726) rotate(0 35 10)"><text x="35" y="14" font-family="Virgil, Segoe UI Emoji" font-size="16px" fill="#000000" text-anchor="middle" style="white-space: pre;" direction="ltr">(Data...)</text></g><g stroke-linecap="round"><g transform="translate(131.22572607131838 69.9667207967886) rotate(0 -0.664798140203402 -29.983360398394296)"><path d="M0 0 C-0.35 -15.62, -0.69 -31.24, -1.33 -59.97 M0 0 C-0.5 -22.75, -1.01 -45.51, -1.33 -59.97" stroke="#d9480f" stroke-width="1" fill="none"></path></g><g transform="translate(131.22572607131838 69.9667207967886) rotate(0 -0.664798140203402 -29.983360398394296)"><path d="M9.55 -32.02 C6.72 -39.3, 3.88 -46.58, -1.33 -59.97 M9.55 -32.02 C5.42 -42.62, 1.29 -53.23, -1.33 -59.97" stroke="#d9480f" stroke-width="1" fill="none"></path></g><g transform="translate(131.22572607131838 69.9667207967886) rotate(0 -0.664798140203402 -29.983360398394296)"><path d="M-10.96 -31.56 C-8.45 -38.96, -5.94 -46.36, -1.33 -59.97 M-10.96 -31.56 C-7.31 -42.34, -3.65 -53.12, -1.33 -59.97" stroke="#d9480f" stroke-width="1" fill="none"></path></g></g><g transform="translate(149.0511992419797 36.38055162774168) rotate(0 3 10)"><text x="3" y="14" font-family="Virgil, Segoe UI Emoji" font-size="16px" fill="#d9480f" text-anchor="middle" style="white-space: pre;" direction="ltr">1</text></g><g stroke-linecap="round"><g transform="translate(131.58415583772694 115.50162792595023) rotate(0 -1.1368683772161603e-13 51.68954984912938)"><path d="M0 0 C0 33.74, 0 67.48, 0 103.38 M0 0 C0 20.78, 0 41.55, 0 103.38" stroke="#c92a2a" stroke-width="1" fill="none"></path></g><g transform="translate(131.58415583772694 115.50162792595023) rotate(0 -1.1368683772161603e-13 51.68954984912938)"><path d="M-10.26 75.19 C-6.91 84.39, -3.56 93.59, 0 103.38 M-10.26 75.19 C-8.2 80.85, -6.14 86.52, 0 103.38" stroke="#c92a2a" stroke-width="1" fill="none"></path></g><g transform="translate(131.58415583772694 115.50162792595023) rotate(0 -1.1368683772161603e-13 51.68954984912938)"><path d="M10.26 75.19 C6.91 84.39, 3.56 93.59, 0 103.38 M10.26 75.19 C8.2 80.85, 6.14 86.52, 0 103.38" stroke="#c92a2a" stroke-width="1" fill="none"></path></g></g><g stroke-linecap="round"><g transform="translate(128.60955573118963 279.0385085052922) rotate(0 0.022037132864966225 49.036852613035364)"><path d="M0 0 C0.01 22.85, 0.02 45.7, 0.04 98.07 M0 0 C0.01 32.24, 0.03 64.49, 0.04 98.07" stroke="#c92a2a" stroke-width="1" fill="none"></path></g><g transform="translate(128.60955573118963 279.0385085052922) rotate(0 0.022037132864966225 49.036852613035364)"><path d="M-10.23 69.89 C-7.84 76.45, -5.44 83.02, 0.04 98.07 M-10.23 69.89 C-6.85 79.15, -3.47 88.42, 0.04 98.07" stroke="#c92a2a" stroke-width="1" fill="none"></path></g><g transform="translate(128.60955573118963 279.0385085052922) rotate(0 0.022037132864966225 49.036852613035364)"><path d="M10.29 69.88 C7.9 76.45, 5.52 83.02, 0.04 98.07 M10.29 69.88 C6.92 79.15, 3.55 88.42, 0.04 98.07" stroke="#c92a2a" stroke-width="1" fill="none"></path></g></g><g stroke-linecap="round"><g transform="translate(131.40588275005075 215.27905002792903) rotate(0 0.8698213491519482 -50.41608298392822)"><path d="M0 0 C0.68 -39.28, 1.36 -78.56, 1.74 -100.83 M0 0 C0.68 -39.69, 1.37 -79.39, 1.74 -100.83" stroke="#c92a2a" stroke-width="1" fill="none"></path></g><g transform="translate(131.40588275005075 215.27905002792903) rotate(0 0.8698213491519482 -50.41608298392822)"><path d="M11.51 -72.47 C7.71 -83.52, 3.9 -94.57, 1.74 -100.83 M11.51 -72.47 C7.67 -83.63, 3.82 -94.8, 1.74 -100.83" stroke="#c92a2a" stroke-width="1" fill="none"></path></g><g transform="translate(131.40588275005075 215.27905002792903) rotate(0 0.8698213491519482 -50.41608298392822)"><path d="M-9.01 -72.82 C-4.82 -83.73, -0.63 -94.64, 1.74 -100.83 M-9.01 -72.82 C-4.78 -83.85, -0.55 -94.87, 1.74 -100.83" stroke="#c92a2a" stroke-width="1" fill="none"></path></g></g><g stroke-linecap="round"><g transform="translate(129.19707961355812 373.510536135083) rotate(0 -1.3431760101387908 -47.92611697782854)"><path d="M0 0 C-0.54 -19.35, -1.08 -38.71, -2.69 -95.85 M0 0 C-0.72 -25.54, -1.43 -51.09, -2.69 -95.85" stroke="#c92a2a" stroke-width="1" fill="none"></path></g><g transform="translate(129.19707961355812 373.510536135083) rotate(0 -1.3431760101387908 -47.92611697782854)"><path d="M8.36 -67.96 C6.13 -73.59, 3.9 -79.22, -2.69 -95.85 M8.36 -67.96 C5.42 -75.39, 2.47 -82.83, -2.69 -95.85" stroke="#c92a2a" stroke-width="1" fill="none"></path></g><g transform="translate(129.19707961355812 373.510536135083) rotate(0 -1.3431760101387908 -47.92611697782854)"><path d="M-12.15 -67.39 C-10.24 -73.13, -8.33 -78.88, -2.69 -95.85 M-12.15 -67.39 C-9.63 -74.97, -7.11 -82.56, -2.69 -95.85" stroke="#c92a2a" stroke-width="1" fill="none"></path></g></g><g transform="translate(141.0618296656437 160.7527874933358) rotate(0 11 10)"><text x="11" y="14" font-family="Virgil, Segoe UI Emoji" font-size="16px" fill="#c92a2a" text-anchor="middle" style="white-space: pre;" direction="ltr">2.1</text></g><g transform="translate(137.14153657043494 320.4189867749298) rotate(0 14.5 10)"><text x="14.5" y="14" font-family="Virgil, Segoe UI Emoji" font-size="16px" fill="#c92a2a" text-anchor="middle" style="white-space: pre;" direction="ltr">2.2</text></g><g transform="translate(74.25907331425947 241.1890868230119) rotate(0 60 10)"><text x="60" y="14" font-family="Virgil, Segoe UI Emoji" font-size="16px" fill="#000000" text-anchor="middle" style="white-space: pre;" direction="ltr">Virtual network</text></g></svg>