<svg version="1.1" xmlns="http://www.w3.org/2000/svg" viewBox="0 0 890.160030469021 801.4000627780403" width="890.160030469021" height="801.4000627780403">
  <!-- svg-source:excalidraw -->
  
  <defs>
    <style>
      @font-face {
        font-family: "Virgil";
        src: url("https://excalidraw.com/Virgil.woff2");
      }
      @font-face {
        font-family: "Cascadia";
        src: url("https://excalidraw.com/Cascadia.woff2");
      }
    </style>
  </defs>
  <rect x="0" y="0" width="890.160030469021" height="801.4000627780403" fill="#ffffff"></rect><g stroke-linecap="round"><g transform="translate(434.9963434063259 652.7946252627991) rotate(0 0.2234146765802052 -67.22147957478384)"><path d="M0 0 C0.07 -22.41, 0.37 -112.04, 0.45 -134.44 M0 0 C0.07 -22.41, 0.37 -112.04, 0.45 -134.44" stroke="#1864ab" stroke-width="1" fill="none"></path></g><g transform="translate(434.9963434063259 652.7946252627991) rotate(0 0.2234146765802052 -67.22147957478384)"><path d="M10.61 -106.22 C6.88 -116.59, 3.14 -126.96, 0.45 -134.44 M10.61 -106.22 C7.82 -113.98, 5.02 -121.75, 0.45 -134.44" stroke="#1864ab" stroke-width="1" fill="none"></path></g><g transform="translate(434.9963434063259 652.7946252627991) rotate(0 0.2234146765802052 -67.22147957478384)"><path d="M-9.91 -106.29 C-6.1 -116.63, -2.3 -126.98, 0.45 -134.44 M-9.91 -106.29 C-7.06 -114.03, -4.21 -121.78, 0.45 -134.44" stroke="#1864ab" stroke-width="1" fill="none"></path></g></g><g stroke-linecap="round"><g transform="translate(692.4976145314245 500) rotate(0 -81 0)"><path d="M0 0 C-27 0, -135 0, -162 0 M0 0 C-27 0, -135 0, -162 0" stroke="#1864ab" stroke-width="1" fill="none"></path></g><g transform="translate(692.4976145314245 500) rotate(0 -81 0)"><path d="M-133.81 -10.26 C-143.5 -6.73, -153.2 -3.2, -162 0 M-133.81 -10.26 C-140.2 -7.93, -146.59 -5.61, -162 0" stroke="#1864ab" stroke-width="1" fill="none"></path></g><g transform="translate(692.4976145314245 500) rotate(0 -81 0)"><path d="M-133.81 10.26 C-143.5 6.73, -153.2 3.2, -162 0 M-133.81 10.26 C-140.2 7.93, -146.59 5.61, -162 0" stroke="#1864ab" stroke-width="1" fill="none"></path></g></g><g stroke-linecap="round"><g transform="translate(104.42056436302846 400.16936832538113) rotate(0 -7.6098384156777 108.62950780060856)" fill-rule="evenodd"><path d="M-92.82 39.89 C-92.82 39.89, -92.82 39.89, -92.82 39.89 M-92.82 39.89 C-92.82 39.89, -92.82 39.89, -92.82 39.89 M-94.03 46.71 C-90.18 44.15, -89.05 41, -84.38 36.7 M-92.57 46.62 C-90.65 44.22, -88.74 41.81, -84.3 36.76 M-93.47 53.7 C-88.38 49.15, -85.71 45.42, -77.34 34.63 M-93.04 52.92 C-90.19 48.93, -85.26 42.61, -76.52 32.16 M-92.68 58.37 C-83.9 48.6, -72.41 34.74, -68.95 27.31 M-92.96 57.66 C-83.68 49.37, -75.06 40.06, -68.19 28.94 M-91.53 66.45 C-80.07 49.61, -69.02 33.48, -59.39 27.33 M-93.95 63.93 C-81.92 49.71, -69.33 37.35, -58.81 26.34 M-95.27 72.55 C-76.06 52.96, -62.7 32.79, -49.18 20.63 M-93.96 72.04 C-81.72 57.56, -68.09 42.85, -49.83 21.68 M-92.28 76.02 C-76.57 55.71, -56.17 36.62, -40.36 18.29 M-92.26 76.38 C-75.56 57.52, -60.47 38.81, -41.83 17.13 M-91.51 84.59 C-71.27 60.37, -50.45 33.03, -33.9 16.13 M-92.69 83.92 C-74.61 62.96, -56.52 41.61, -33.83 14.28 M-93.87 91.23 C-79.08 71.94, -63.83 52.68, -25.11 11.57 M-93.08 90.05 C-68.7 61.77, -43.14 31.27, -24.58 11.93 M-93.56 93.78 C-74.58 73.41, -57.07 52.89, -16.96 7.3 M-92.5 95.11 C-66.37 65.55, -41.92 35.23, -15.95 6.67 M-95.43 102.59 C-64.64 69.76, -33.99 36.27, -9.49 2.89 M-92.56 101 C-61.79 63.14, -26.61 24.16, -8.11 3.45 M-94.45 109.38 C-71.72 81.02, -47.13 51.07, 0.84 -0.37 M-92.78 108.95 C-66.54 77.37, -40.51 47.01, 1.02 -0.66 M-93.66 115.58 C-58.86 74.19, -21.42 30.14, 2.49 2.23 M-94.53 114.83 C-61.4 73.72, -26.53 35.04, 3.28 2.2 M-94.24 120.29 C-58.7 80.93, -22.54 37.3, 7.92 3.56 M-93 120.02 C-54.12 74.1, -14.6 30.25, 7.39 4.34 M-93.55 124.58 C-70.16 96.6, -47.03 69.65, 11.8 6.68 M-93.21 126.66 C-68.86 97.94, -44.54 68.24, 11.17 5.45 M-92.52 132.39 C-59.07 92.14, -21.6 49.06, 14.81 9.87 M-93.28 133.48 C-64.7 100.9, -35.53 68.54, 13.49 8.63 M-93.02 138.16 C-67.98 107.86, -40.92 75.01, 16.37 8.52 M-93.82 138.38 C-58.77 98.18, -22.93 56.62, 17 9.21 M-95.19 146.47 C-53.14 97.09, -14.39 54.25, 21.87 13.55 M-93.13 144.99 C-65.35 111.24, -34.93 75.7, 21.42 12.03 M-92.91 152.86 C-59.54 112.24, -26.49 77.58, 26.64 13.48 M-94.63 150.45 C-58.82 109.61, -24.18 69.94, 25.61 14.55 M-95.08 155.52 C-47.19 101.9, -0.02 48.85, 28.58 15.83 M-94.08 156.01 C-57.84 115.88, -22.61 75.02, 28.25 15.13 M-95.04 162.87 C-65.84 126.3, -34.77 95.38, 32.11 17.25 M-94.94 163.57 C-50.75 114.06, -7.63 64.26, 31.84 18.09 M-91.96 168.21 C-64.42 140.06, -39.71 107.28, 35.45 21.85 M-91.71 167.25 C-65.16 134.02, -35.72 101.7, 36.05 21.05 M-88.87 170.56 C-58.58 138.41, -34.34 105.7, 39.3 23.16 M-87.84 169.21 C-56.68 132, -23.71 95.22, 38.45 21.71 M-83.94 172.11 C-33.56 114.86, 14.93 57.66, 42.06 22.44 M-85.02 171.96 C-49.97 130.69, -14.11 91.26, 43.81 23.19 M-83.36 172.02 C-44.42 129.22, -4.32 85.23, 47.83 26.79 M-81.95 173.17 C-43.5 128.16, -3.49 81.68, 46.18 25.08 M-78.58 174.57 C-44.39 137.27, -10.36 97.93, 51.04 26.61 M-77.55 174.72 C-50.58 142.79, -23.2 113.16, 49.52 27.75 M-75.75 180.29 C-25.87 122.3, 23.34 66.71, 52.39 29.62 M-76.31 178.78 C-43.82 143.11, -13.28 108.47, 53.77 29.42 M-73.1 181.08 C-40.88 144.75, -10.76 110.37, 58.13 31.32 M-71.61 179.85 C-26.59 128.77, 19.36 76.91, 56.15 31.44 M-68.26 182.08 C-24 132.51, 19.63 80.66, 60.7 32.82 M-67.02 181.62 C-42.1 151.41, -16.15 120.64, 59.89 33.18 M-63.69 184.81 C-37.41 153.81, -10.57 124.67, 66.06 35.22 M-65.57 184.97 C-15.25 127.11, 36.16 70.62, 63.59 35.26 M-60.03 186.27 C-28.93 150.77, 1.87 114.54, 69.57 37.75 M-61.17 186.07 C-30.83 149.75, 0.84 114.11, 67.2 38.65 M-59.48 188.86 C-6.24 131.86, 43.95 71.89, 72.67 39.14 M-57.82 189.2 C-14.53 140.51, 26.67 90.27, 70.74 38.98 M-55.15 191.46 C-6.94 134.07, 42.11 75.18, 74.86 43.72 M-54.94 190.79 C-26.77 154.96, 4.03 122.22, 74.33 41.62 M-52.5 192.55 C-15.72 151.21, 17.97 114.01, 76.88 43.84 M-50.75 193.48 C-2.43 136.96, 47.98 80.49, 77.48 44.93 M-48.64 196.15 C-19.99 161.22, 7.43 128.11, 80.82 46.46 M-47.51 194.96 C-8.8 150.19, 29.53 103.78, 81.21 45.91 M-45.75 198.86 C-13.05 159.09, 18.77 125.68, 80.68 52.31 M-44.84 198 C-13.1 159.48, 19.1 121.58, 82.67 52.21 M-40.46 201.06 C-14.64 163.63, 13.81 130.76, 79.56 59.95 M-41.08 198.55 C-10.62 165.76, 17.66 130.63, 80.49 59.18 M-35.19 200.71 C-11.49 172.51, 17.36 139.26, 81.09 65.2 M-36.56 200.5 C-7.38 164.98, 23.41 129.98, 82.13 66.21 M-35.52 204.57 C-0.15 164.79, 32.35 130.25, 82.67 69.75 M-32.91 203.8 C1.78 163.29, 35.6 123.77, 81.28 72.28 M-31.64 207.22 C13.02 154.27, 52.71 108.7, 81.45 77.04 M-30.42 206.49 C-3.15 176.83, 20.92 147.14, 81.86 76.79 M-25.65 209.02 C0.62 176.13, 27.93 150.11, 80.27 84.65 M-27.28 207.5 C13.06 162.3, 53.02 117, 82.06 82.86 M-24.94 211.19 C-1.96 184.68, 22.53 160.35, 80.27 89.13 M-22.95 210.77 C13.43 166.58, 49.28 124.95, 80.96 89.15 M-19.62 210.94 C14.48 173.05, 52.68 129.66, 78.88 98.4 M-19.48 211.22 C20.16 167.96, 57.08 125.35, 80.64 97.14 M-17.82 215.35 C9.47 182.88, 40.8 149.16, 79.73 103.65 M-16.76 213.65 C20.44 168.46, 59.04 124.6, 80.12 102 M-11.14 216.51 C14.5 184.47, 39.51 152.77, 78.7 107.67 M-13.86 216.78 C19.37 179.57, 52.02 141.23, 81.45 107.85 M-7.96 218.62 C19.74 185.73, 47.83 154.75, 80.45 113.76 M-10.41 219.26 C13.19 192.34, 33.83 167.93, 80.35 115.59 M2.35 211.59 C26.82 184.88, 46.7 159.83, 80.4 122.07 M1.41 212.26 C26.58 182.78, 51.99 152.9, 80.25 122.24 M10.46 207.03 C29.04 185.87, 44.25 167.41, 78.73 125.53 M11.87 206.38 C35.6 178.84, 58.61 150.22, 80.28 127.71 M23.27 200.5 C35.47 185.75, 50.24 169.54, 78.32 134.16 M21.96 198.82 C34.82 185.66, 46.51 171.82, 79.38 134.12 M32.77 194.46 C48.55 175.68, 65.79 157.03, 81.33 139.99 M32.31 193.28 C48.1 176.8, 64.78 157.15, 80.87 139.66 M41.88 189.58 C57.14 174.05, 67.27 159.61, 79.23 145.41 M43.12 188.2 C57 171.59, 70.79 157.24, 80.55 145.82 M56.49 179.41 C58.83 174.17, 66.25 170.36, 78.69 151.08 M54.21 180.4 C63.42 170.69, 71.8 159.8, 80.67 152.28 M64.05 177.51 C67.22 172.83, 72.29 165.87, 79.6 156.26 M65.76 175.11 C67.25 172.92, 69.88 167.67, 80.03 158.18" stroke="#40c057" stroke-width="0.5" fill="none"></path><path d="M-0.06 -0.72 C-24.18 9.02, -49.5 20.29, -91.63 39.34 M-91.83 39.22 C-94.8 72.17, -94.28 99.21, -92.5 164.85 M-94.42 167.41 C-67.12 181.55, -41.99 197.44, -13.19 214.89 M-11.83 217.98 C23.79 196.83, 57.6 177.69, 78.31 165.69 M78.99 163.72 C79.83 118.47, 77.83 70.35, 78.75 45.1 M77.95 45.06 C48 28.22, 15.34 9.05, -1.46 -0.52 M0 0 C0 0, 0 0, 0 0" stroke="#087f5b" stroke-width="1.5" fill="none" stroke-dasharray="8 9"></path></g></g><g stroke-linecap="round" transform="translate(223.49761453142446 149) rotate(0 215 29.5)"><path d="M0 0 C0 0, 0 0, 0 0 M0 0 C0 0, 0 0, 0 0 M-1.2 5.59 C2.94 3.68, 2.78 2.03, 4.18 -0.67 M-0.87 6.59 C1.52 4.61, 3.85 1.16, 4.26 1.05 M-3.04 11.23 C6.38 9.01, 7.68 2.4, 12.38 -1.06 M-0.1 12.9 C3.45 9.38, 6.37 5.93, 11.37 0.25 M1.34 18.29 C6.86 13.51, 10.18 4.87, 15.87 0.73 M-1.64 19.65 C4.93 12.63, 8.58 7.05, 16.57 1.69 M-0.97 21.44 C9.45 13.63, 14 5.61, 23.17 -2.7 M2.19 25.31 C7.85 16.65, 16.69 6.73, 20.68 -0.52 M0.18 30.33 C12.3 21.61, 17.63 4.56, 28.58 -1.7 M1.93 31.66 C8.23 22.37, 13.3 13.37, 25.5 0.73 M3.1 34.14 C9.45 26.91, 17.75 17.77, 28.02 2.19 M-0.1 36.71 C11.87 26.87, 20.35 12.38, 30.05 -0.83 M-2.43 45.59 C15.01 24.65, 26.2 6.51, 36.24 4.05 M1.21 44.22 C16.46 26.67, 28.33 9.5, 38.5 0.27 M0.84 49.22 C11.26 37.92, 19.85 22.37, 42.05 -0.56 M0.79 48.9 C10.49 35.8, 21.35 21.84, 42.45 -1.79 M4.21 54.13 C15.65 40.74, 24.03 26.42, 49.05 0.56 M0.99 54.17 C10.47 42.49, 19.63 33.97, 48.62 0.9 M-1.55 61.25 C8.57 46.06, 24.72 32.04, 54.92 0.12 M-0.07 60.45 C17.22 39.03, 37.27 17.24, 53.17 -1.05 M3.66 56.25 C17.89 48.06, 28.24 35.33, 60.16 3.42 M4.46 59.06 C26.81 36.62, 46.18 14.98, 57.39 -1.29 M10.26 63.23 C30.22 36.51, 49.77 9.87, 63.32 0.3 M10.03 58.89 C28.78 37.89, 51.08 15.54, 62 -0.78 M19.29 61.53 C30.73 38.6, 49.08 24.21, 69.76 -2.8 M16.1 60.23 C28.41 46.63, 38.78 35.44, 66.85 1.28 M22.62 63.08 C32.61 48.02, 42.91 31.2, 70.9 -2.92 M21.29 61.13 C37.52 44.16, 50.01 25.63, 73.22 0.37 M30.17 60.34 C48.84 35.01, 66.35 14.77, 77 -0.52 M25.62 58.3 C43.71 39.94, 58.82 20.71, 79.54 -0.3 M30.69 58.36 C42.44 45.5, 57.69 30.39, 88.35 -3.49 M34.25 60.24 C44.43 46.37, 52.58 33.47, 83.64 -0.78 M34.97 62.75 C49.37 40.96, 64.14 29.48, 88.07 -3.16 M39.78 60.11 C56.75 40.76, 69.23 23.07, 90.5 0.56 M44.64 63.66 C58.68 49.53, 65.78 32.18, 93.34 -2.31 M41.95 60.82 C55.8 46.49, 69.32 31.99, 94.53 0.11 M47.38 55.83 C66 41.7, 83.45 19.14, 100.14 0.86 M49.9 59.99 C60.82 46.65, 69.64 33.84, 99.27 1.94 M57.66 62.56 C72.98 41.73, 91.35 16.8, 102.53 0.69 M53.92 58.96 C70.33 41.58, 87.32 22.79, 107.69 -1.13 M56.05 59.68 C69.91 45.42, 86.64 27.66, 109.37 0.11 M59.74 59.78 C76.85 38.39, 98.72 17.17, 109.89 1.43 M61.91 63.62 C82.8 35.37, 104.45 19.02, 114.94 -0.66 M64.22 58.23 C75.02 48.39, 88.56 32.82, 116.75 -0.4 M72.66 63.36 C84.75 45.71, 88.91 31.12, 118.94 0.17 M69.61 60.81 C83.21 40.06, 101.85 21.71, 122.9 0.11 M72.55 60.44 C87.14 48.03, 97.28 31.4, 130.56 2.22 M75.36 61.73 C83.64 48.12, 97.88 34.37, 125.8 -0.37 M83.89 56.96 C101.26 35.49, 119.48 15.35, 131.03 -0.37 M80.3 59.92 C99.42 36.85, 117.72 15.02, 131.33 -1.43 M87.78 63.59 C102.3 39.54, 116.6 28.3, 138.4 -2.86 M86.41 60.04 C100.2 39.9, 114.05 23.78, 137.49 2.04 M91.4 55.55 C106 36.68, 127.99 17.55, 146.79 -1.95 M93.08 61.45 C101.65 45.34, 117.27 29.3, 144.73 0.89 M96.74 60.64 C102.4 44.51, 119.04 32.86, 151.14 4.21 M96.88 59.25 C111.08 45.86, 122.77 29.6, 147.61 0.68 M103.86 59.2 C119.68 40.72, 136.2 19.07, 150.42 -3.98 M101.76 61.23 C111.21 47.3, 122.41 35.66, 153.13 -1.33 M103.63 56.17 C121.18 48.93, 129.26 38.25, 156.44 -3.52 M106.83 60.94 C118.29 45.38, 132.8 31.26, 160.43 0.87 M112.31 61.77 C126.31 46.62, 136.29 35.13, 165.07 3.12 M111.96 59.35 C124.72 44.45, 138.82 26.37, 163.07 -1.02 M119.6 63.77 C138.69 44, 157.13 21.35, 172.98 4.04 M116.79 58.19 C134.77 35.26, 154.52 15.09, 168.75 -0.55 M124.7 63.8 C133.61 43.1, 147.38 33.72, 172.92 -2.08 M123.78 61.14 C137.57 43.77, 150.81 29, 173.59 0.41 M130.84 58.01 C145.97 44.04, 164.13 20.49, 178.43 1.97 M127.8 59.6 C145.99 39.3, 164.83 15.78, 181.87 0.76 M130.07 61.14 C150.86 39.78, 173.55 13.61, 187.14 0 M131.87 61.69 C154.61 35.4, 176.17 11.21, 184.24 1.06 M138.51 62.47 C150.66 46.76, 166.29 32.06, 189.46 -1.65 M137.4 61.25 C153.07 42.56, 167.73 26.92, 189.56 0.63 M141.08 57.86 C159.41 45.14, 171.06 27.28, 195.9 -2.06 M143.99 58.84 C155 46.37, 166.08 35.43, 195.05 -1.5 M150.79 61.73 C163.33 45.28, 175.94 30.35, 197.75 2.25 M147.63 58.73 C168.03 35.74, 191.13 13.28, 202.11 -1.59 M153.41 59.05 C170.38 42.56, 193.27 20.35, 210.38 -2.69 M156.46 61.92 C166.12 46.32, 183.12 27.83, 206.55 -2.18 M158.84 57.36 C176.81 35.59, 194.56 18.99, 209.96 -0.25 M161.03 59.12 C175.45 40.17, 195.17 19.55, 210.33 0.92 M161.73 62.77 C182.36 46.99, 192.3 24.76, 216.74 -3.29 M166.05 59.76 C177 44.74, 192.18 28.26, 215.8 -0.4 M168.84 59.94 C179.77 43.23, 194.4 25.57, 223.77 1.93 M172.64 61 C187.53 42.96, 201.4 21.91, 221.49 -1.5 M175.71 60.11 C197.19 34.26, 212.35 11.62, 232.16 -4.3 M174.06 60.71 C191.79 42.16, 209 20.95, 228.32 -0.06 M177.96 57.06 C192.58 46.91, 201.45 37.5, 235.85 -3.13 M181.99 58.47 C194.64 44.25, 209.84 26.99, 231.38 0.99 M188.02 59.15 C196.06 50.19, 204.14 36.95, 240.16 3.61 M186.26 60.6 C202.04 44.63, 212.71 29.45, 237.5 -0.83 M190.38 61.28 C205.08 44.53, 218.09 23.83, 241.86 -2.36 M193.12 61.11 C213.18 37.49, 231.65 16.29, 244.3 1.73 M198.33 60.95 C208.76 42.81, 229.16 28.71, 249.21 -3.48 M196.96 58.76 C215.63 38.67, 234.89 14.6, 247.2 -1.12 M201.25 62.2 C218.09 41.29, 232.63 19.36, 252.5 2.33 M202.59 58.01 C221.72 35.19, 242.13 11.69, 253.03 1.54 M205.32 59.62 C223.41 40.12, 242.21 17.98, 256.84 1.76 M208.95 58.04 C218.8 46.76, 232.49 31.23, 259.79 -1.61 M212.77 58.37 C233.03 35.67, 253.6 14.71, 261.41 2.02 M211.41 57.75 C236.09 35.37, 257.26 10.27, 266.86 0.77 M214.66 58.21 C231.36 39.13, 250.87 27.09, 268.21 -1.09 M217.5 60.76 C228.79 44.58, 245.79 28.88, 270.81 -0.2 M226.09 57.4 C239.15 49.22, 249.98 29.98, 277.29 -3.23 M225.14 60.41 C236.68 41.09, 249.9 27.52, 275.58 -0.74 M231.01 60.81 C242.89 44.25, 255.7 28.42, 279.5 0.53 M230.41 60.77 C240.22 46.72, 252.08 33.33, 280.3 0.69 M232.74 60.6 C257 39.52, 273.01 11.79, 283.79 3.67 M233.15 58.34 C250.16 43.44, 262.86 28.41, 285.49 0.33 M242.06 56.49 C258.52 39.08, 278.39 15.95, 293.89 -3.77 M239.97 59.39 C250.54 45.36, 262.91 33.53, 292.81 2.15 M241.2 60.04 C257 45.88, 262.05 35.54, 295.59 0.8 M243.3 61.12 C254.83 49.01, 267.95 35.42, 295.36 -1.18 M250.47 59.34 C258.63 46.31, 269.09 37.15, 305.53 0.56 M250.97 61.47 C263.4 45.69, 276.36 28.89, 301.37 0.76 M256.98 59.07 C269.13 45.92, 280.68 24.61, 310.37 -0.77 M253.97 60.09 C273.8 39.05, 289.9 18.49, 308.49 1.07 M257.91 60.43 C284.03 40.17, 297.13 17.83, 315.6 -2.89 M260.69 59.34 C277.21 38.35, 294.37 21.83, 311.52 0.61 M269.26 61.25 C274.46 48.52, 292.23 32.64, 316.79 3.05 M264.7 61.32 C284.44 35.88, 305.3 14.52, 316.66 0.92 M273.06 59.85 C287.55 37.79, 309.31 16.8, 324.29 2.46 M270.93 60.83 C289.44 39.04, 310.22 17.23, 321.29 1.29 M274.2 63.16 C291.7 41.52, 306.48 22.53, 326.52 1.33 M275.52 58.41 C295.22 40.92, 310.92 20.96, 328.18 -0.29 M279.59 58.66 C293.68 37.82, 316.51 21.17, 330.74 2.19 M283.98 61.29 C301.92 38.85, 322.7 16.95, 333.24 1.88 M290.98 62.39 C303.22 38.28, 325.18 21.3, 342.25 0.14 M286.98 60.45 C304.7 40.78, 318.89 25.84, 339.82 -1.75 M292.17 58.95 C313.9 38.18, 333.88 15.8, 341.15 -1.13 M294.62 59.55 C314.68 33.96, 331.42 13.42, 346.39 0.97 M297.78 57.51 C307.82 47.34, 319.68 33.88, 348.98 -0.67 M296.12 60.01 C318.92 35.65, 339.21 12.59, 348.21 1.66 M300.48 55.79 C313.22 45.73, 324.27 36.79, 352.68 -3.93 M302.14 57.94 C313.02 47.96, 325.66 35.88, 356.29 0.65 M311.76 56.1 C323.96 40.05, 343.68 17.8, 356.69 -2.54 M308.48 61.19 C322.67 44.07, 339.16 27.73, 360.47 0.25 M317.17 61.27 C328.26 42.9, 332.97 30.6, 369.5 -1.61 M314.33 58.31 C336.24 37.83, 352.84 16.79, 366.97 -1.51 M317.09 58.73 C338.03 37.47, 356.38 23.42, 372.41 -3.64 M318.08 59.57 C334.12 44.83, 344.65 32.33, 370.21 2.12 M321.94 56.45 C338.8 45.34, 350.56 27.22, 378.79 3.4 M323.49 57.98 C337.96 45.22, 347.22 30.26, 374.98 -0.41 M328.95 58.99 C343.72 47.74, 352.1 34.51, 378.81 -1.88 M331.48 58.24 C345.83 41.62, 360.51 25.61, 380.24 2.1 M333.44 63.43 C350.72 41.82, 373.42 16.33, 390.71 1.67 M334.39 57.79 C350.44 37.76, 370.59 18.38, 385.35 0.53 M337.51 59.45 C363.17 34.56, 383.68 13.04, 389.55 -2.2 M339.72 59.78 C351.65 49.26, 361.19 35.29, 393.84 -1.48 M344.69 58.03 C363.76 44.73, 372.54 25.35, 398.44 0.79 M343.68 58.83 C361.41 40.38, 381.69 21.45, 399.63 1.4 M347.94 63.7 C361.67 48.32, 372.56 33.82, 401.31 -0.5 M350.32 58.28 C362.7 45.89, 373.85 30.07, 402.8 1.23 M357.69 62.82 C377.92 34.53, 391.01 13.18, 410.15 1.33 M354.46 59.44 C374.71 41.79, 390.11 21.97, 407.84 1.78 M364.42 60.3 C373.79 47.09, 386.58 34.2, 409.76 0.28 M363.33 59.33 C374.63 45.04, 390.54 27.46, 411.41 -0.45 M363.43 63.63 C382.82 42.43, 400.16 23.21, 417.01 -3.13 M368.35 59.69 C384.6 41.54, 399.26 21.95, 420.54 0.76 M374.1 62.84 C381.98 44.06, 395.66 32.97, 425.58 -1.78 M371.3 60 C384.38 43.27, 399.26 29.5, 424.45 -1.66 M376.61 62.55 C393.24 43.92, 410.57 17.75, 433.2 -2.01 M376.14 58.44 C398.29 39.97, 416 17.98, 428.76 0.93 M379.18 61.9 C395.08 46.34, 407.28 30, 432.46 2.67 M383.25 60.89 C399.19 41.28, 414.8 24.63, 433.26 4.17 M386.88 62.64 C408.12 39.49, 421.06 21.8, 432.67 8.56 M389.13 62 C396.15 48.57, 406.86 37.28, 432.81 8.67 M396.81 57.05 C408.33 44.2, 420.33 28.93, 432.52 13.25 M392.73 58.09 C405.82 46.39, 418.36 30.94, 433.05 12.45 M398.91 60 C413.17 44.94, 420.86 32.71, 430.86 21.4 M399.11 60.22 C407.89 48.47, 419.18 36.49, 432.03 21.79 M403.17 56.88 C413.13 48.97, 420.82 38.43, 433.96 29.23 M405.77 59.17 C413.37 51.63, 419.55 40.13, 434.64 24.69 M408.39 59.69 C410.92 55.62, 421.3 44.04, 435.56 36.8 M410.36 58.44 C416.56 52.62, 423.94 42.27, 431.55 32.11 M413.44 62.95 C420.66 55.35, 427.22 45.22, 434.79 37.44 M412.92 59.23 C420.81 52.71, 424.59 48.57, 432.17 40.48 M417.99 59.79 C421.27 52.99, 426.06 52.7, 432.26 46.09 M419.67 61.48 C425.16 55.43, 430.26 50.41, 431.73 44.95 M425.52 60.83 C427.64 54.35, 432.62 55.35, 433.3 49.18 M425.22 60.27 C427.27 55.91, 430.51 54.71, 433.43 52.03" stroke="#fab005" stroke-width="0.5" fill="none"></path><path d="M0.13 -1.86 C162.7 1.11, 325.06 1.55, 430.17 1.35 M-0.42 0.49 C168.66 3.06, 336.6 3.34, 429.22 -0.99 M433.05 -2.67 C431.5 23.4, 429.79 36.42, 429.1 56.97 M428.06 0.8 C429.22 14.91, 431.62 32.64, 429.61 60.84 M431.27 57.75 C340.48 61.82, 250.02 62.73, 1.33 59.47 M429.81 59.66 C297.92 57.8, 167.12 57.99, 0 59.88 M0.08 57.17 C-1.89 42.59, 4.25 17.78, -0.69 0.47 M-1.9 60.11 C1.81 43.13, -0.42 27.09, -1.08 -0.1" stroke="#e67700" stroke-width="1" fill="none"></path></g><g transform="translate(385.99761453142446 165) rotate(0 63 16)"><text x="63" y="25" font-family="Helvetica, Segoe UI Emoji" font-size="28px" fill="#000000" text-anchor="middle" style="white-space: pre;" direction="ltr">$Gateway</text></g><g stroke-linecap="round"><g transform="translate(796.6326419233831 397.16936832538113) rotate(0 -7.17200871891805 108.10094186639424)" fill-rule="evenodd"><path d="M-95.96 39.81 C-95.96 39.81, -95.96 39.81, -95.96 39.81 M-95.96 39.81 C-95.96 39.81, -95.96 39.81, -95.96 39.81 M-95.95 46.41 C-94.1 43.62, -88.6 38.78, -86.43 37.22 M-96.36 46.65 C-94.37 43.41, -91.93 41.06, -87.41 36.94 M-97.23 53.66 C-93.4 46.69, -88.28 43.38, -78.98 32.07 M-97.32 52.85 C-91.9 47.88, -89.15 43.79, -78.7 32.26 M-94.51 56.39 C-86.44 48.69, -77.61 36.33, -72.64 29.1 M-96.38 58.42 C-86.41 48.28, -77.69 36.09, -71.8 29.92 M-96.55 65.67 C-83.84 51.31, -73.9 38.02, -64.6 27.42 M-96.47 64.7 C-88.73 55.71, -79.69 46.6, -63.29 26.07 M-98.14 71.51 C-86.48 61.53, -76.69 50.72, -56.23 24.63 M-97.1 71 C-81.75 53.15, -66.47 35.8, -53.73 23.17 M-97.25 78.62 C-78.33 59.94, -63.02 40.06, -47.02 17.93 M-96.8 76.48 C-78.19 55.14, -61.24 34.9, -47.24 19 M-96.32 81.5 C-85.19 70.33, -70.22 53.17, -37.24 16.66 M-97.48 83.37 C-81.25 66.89, -65.59 49.2, -37.12 15.33 M-95.51 88.15 C-74.7 64.09, -52.39 42.32, -30.52 11.03 M-96.71 88.65 C-78.58 68.73, -59.86 46.03, -29.61 12.63 M-95.38 96.06 C-70.85 66.93, -48.58 39.43, -20.48 8.65 M-97.51 96.24 C-67.23 62.01, -37.49 28.54, -21.5 8.73 M-97.51 103.22 C-68.51 67.72, -39.19 36.26, -13.4 7.22 M-95.99 101.93 C-71.03 71.91, -44.4 41.54, -13.9 5.52 M-97.08 106.93 C-65.96 71.17, -35.91 35.45, -6.8 3.13 M-97.01 108.3 C-78.8 86.77, -60.22 63.91, -5.87 1.66 M-97.53 115.89 C-78.71 92.91, -55.73 70.51, 1.97 2.33 M-97.94 114.97 C-63.52 75.62, -28.42 37.5, 1.92 1.47 M-95.21 121.15 C-66 81.79, -30.6 41.43, 4.33 1.23 M-96.27 119.45 C-76.77 97.33, -56.23 73.94, 4.75 3.92 M-95.92 126.97 C-69.32 92.84, -39.77 61.68, 7.88 5.02 M-97.33 126.15 C-66.65 92.12, -37.17 57.5, 8.15 5 M-97.63 130.88 C-57.45 83.09, -15.15 34.29, 11.85 7.09 M-98 132.55 C-73.37 105.46, -49.77 77.03, 12.34 7.21 M-95.07 138.62 C-66.66 107.68, -38.81 73.49, 15.06 6.67 M-96.38 138.09 C-72.36 108.98, -47.96 79.6, 15.09 9.27 M-96.3 143.02 C-63.15 105.12, -28.82 66.88, 20.69 10.15 M-97.45 145.19 C-53.93 94.13, -10.99 45.57, 19.47 11.48 M-97.42 152.07 C-73.09 123.65, -46.99 93.56, 24.25 12.77 M-96.8 151.36 C-68.51 116.63, -39.13 81.82, 22.69 13.47 M-95.18 155.83 C-66.17 122.82, -35.42 89.81, 27.05 15.69 M-96.29 156.18 C-65.95 120.15, -33.54 81.9, 26.57 15.36 M-95.53 161.33 C-48.51 108.73, -4.69 56.77, 28.15 15.64 M-97.75 164.23 C-66.7 125.05, -33 87.41, 30.4 17.48 M-94.36 166.36 C-52.93 120.43, -10.5 73.53, 33.12 18.29 M-94.7 167.02 C-67.47 134.43, -39.59 102.6, 34.65 17.76 M-90.71 167.71 C-52.24 127.48, -15.91 87.14, 35.39 18.89 M-92.63 169.19 C-48.73 120.96, -7.5 72.62, 37.24 20.44 M-89.36 173.71 C-57.43 137.77, -25.01 98.76, 41.65 22.87 M-88.69 171.2 C-56.84 134.14, -25.97 99.84, 41.88 22.77 M-84.89 173.39 C-45.69 129.07, -7.88 87.89, 45.21 22.47 M-84.8 174.49 C-40.14 122.21, 5.13 70.84, 44.4 23.68 M-82.27 175.84 C-31.01 118.76, 20.76 57.39, 47.36 25.38 M-81.27 174.96 C-51.8 140.01, -20.37 104.68, 49 26.47 M-76.77 175.85 C-42.16 139.71, -7.33 99.53, 50.12 28.12 M-77.83 176.59 C-27.78 120.32, 22.65 62.25, 51.96 28.26 M-73.98 180.01 C-24.52 122.27, 27.28 66.73, 56.23 29.62 M-74.66 179.72 C-47.64 149.84, -19.55 117.1, 54.58 31.65 M-69.76 180.36 C-41.72 148.78, -13.37 116.31, 58.56 32.4 M-71.42 182.65 C-29.01 132.28, 14.1 82.47, 59.5 31.95 M-68.82 183.52 C-30.55 139.17, 9.91 94.62, 64.16 36.16 M-66.9 182.89 C-33.85 146.12, -1.05 108.44, 61.72 34.82 M-65.38 185.03 C-18.1 131.38, 30.1 74.45, 66.92 35.17 M-64.74 185.57 C-33.06 148.93, -0.35 112.34, 66.16 35.74 M-59.8 187.75 C-25.27 145.45, 13.48 103.88, 69.01 38.9 M-61.13 187.85 C-8.95 130.88, 40.43 73.71, 70.07 38.69 M-57.2 190.99 C-26.71 159.63, 3.4 126, 74.18 40.63 M-56.46 190.17 C-29.79 156.7, -2.04 125.2, 73.27 40.84 M-55.38 192.12 C-10.83 146.93, 27.27 99.72, 77.23 42.08 M-54.34 191.91 C-19.29 151.22, 15.13 112.22, 76.48 41.23 M-48.99 192.92 C-15.44 152.85, 21.12 112.44, 81.23 42.2 M-50.64 195.47 C-11.78 151.65, 24.23 108.81, 81.59 43.48 M-48.69 196.15 C-14.67 163.15, 14.61 128.49, 82.56 45.71 M-46.61 196.4 C-5.59 150.14, 35.46 102.91, 83.67 47.1 M-41.31 196.74 C3.95 145.52, 49.73 88.44, 83.12 50.19 M-42.3 197.75 C-1.82 149.57, 41.25 100.67, 83.84 51.23 M-40.3 201.38 C4.81 150.56, 46.38 102.48, 85.43 58.94 M-39.86 200.59 C10.04 145.8, 58.79 89.87, 83.63 58.98 M-34.38 203.65 C-2.15 159.79, 36.05 117.56, 84.52 64.5 M-36.41 203.77 C-11.98 173.46, 13.36 145.06, 83.68 64.31 M-31.47 205.44 C10.78 154.35, 54.01 105.79, 82.01 72.37 M-33.11 205.72 C1.38 165.31, 36.84 124.66, 82.71 71.93 M-29.2 206.09 C-1.35 176.12, 21.93 146.33, 84.15 76.85 M-28.85 207.59 C12.53 157.16, 56.58 108.76, 82.58 77.24 M-26.92 208.01 C14.23 162.47, 51.38 121.79, 83.82 84.96 M-25.22 208.99 C9.44 169.49, 44 130.27, 83.19 82.26 M-21.63 210.79 C3.45 182.04, 26.32 153.2, 83.34 88 M-21.6 210.16 C11.24 174.95, 41.78 136.99, 84.19 89.32 M-20.02 212.85 C9.01 176.83, 42.62 143.54, 83.7 97.74 M-18.15 213.61 C1.85 189.06, 23.02 162.83, 83.24 95.26 M-12.97 216.52 C24.87 167.96, 60.98 123.52, 83.38 102.01 M-15.47 215.39 C5.15 191.64, 26.8 166.04, 83.7 103.1 M-11.6 217.75 C20.82 179.04, 53.22 141.8, 85.02 107.81 M-11.68 216.7 C13.27 186.82, 38.05 158.1, 82.22 107.21 M0.02 211.83 C22.46 182.91, 47.78 152.54, 82.15 112.99 M-0.16 211.86 C31.42 174.59, 62.02 137.72, 82.48 115.05 M10.6 204.75 C28.3 183.98, 43.06 164.66, 84.51 122.31 M9.05 205.56 C27.86 184.03, 46.4 162.99, 83.37 121.31 M18.62 199.12 C38.52 177.82, 60.21 153.26, 80.82 127.13 M19.27 198.94 C34.33 183.37, 48.38 169.03, 82.78 127.64 M31.2 194.37 C50.86 171.52, 72.5 148.2, 81.43 132.47 M28.89 193.85 C42.25 178.72, 54.85 164.47, 83.1 133.78 M41.46 187.4 C56.42 169.01, 68.53 154.75, 81.12 140.68 M39.73 187.49 C57.48 168.63, 74.39 149.19, 83.03 139.3 M49.88 181.12 C58.16 174.95, 68.7 163.79, 80.36 147.56 M49.32 183.14 C61.96 168.47, 74.11 154.91, 81.72 145.77 M61.69 177.2 C67.94 170.32, 72.05 162.56, 80.1 153.96 M61.22 176.81 C67.14 168.65, 74.7 159.83, 82.55 152.44 M72.08 172.44 C74.47 167.15, 80.58 162.44, 80.63 157 M71.27 171.89 C74.73 166.31, 79.31 162.56, 82.66 157.46" stroke="#be4bdb" stroke-width="0.5" fill="none"></path><path d="M1.34 -0.75 C-37.07 17.29, -74.3 29.34, -97.49 41.59 M-97.39 39.13 C-97.19 78.7, -99.3 116.47, -96.06 164.71 M-97.21 166.94 C-79.06 178.09, -60.21 189.9, -13.06 216.48 M-10.13 216.96 C14.36 201.83, 42.7 188.64, 81.15 165.22 M79.17 165.59 C80.48 141.6, 79.95 117.23, 83.53 44.19 M81.96 45.42 C64.2 34.77, 43.98 23.45, 1.33 1.75 M0 0 C0 0, 0 0, 0 0" stroke="#881fa3" stroke-width="1.5" fill="none" stroke-dasharray="8 9"></path></g></g><g stroke-linecap="round"><g transform="translate(450.6439179441129 615.1693683253811) rotate(0 -7.577232467743784 87.6984894752432)" fill-rule="evenodd"><path d="M-96.44 32.77 C-96.44 32.77, -96.44 32.77, -96.44 32.77 M-96.44 32.77 C-96.44 32.77, -96.44 32.77, -96.44 32.77 M-95.74 37.51 C-93.98 37.21, -92.36 36.04, -89.09 30.28 M-96.03 38.9 C-94.15 36.2, -91.62 34.04, -88.37 29.8 M-96.9 45.16 C-90.33 42.37, -90.19 37.12, -81.23 29.15 M-96.78 44.99 C-91.98 39.75, -88.57 35.42, -81.79 28 M-98.46 51.63 C-88.58 40.81, -78.9 28.9, -75.1 25.87 M-95.63 51.13 C-88.35 42.55, -81.03 31.74, -73.7 24.47 M-98.59 58.45 C-90.62 50.33, -83.28 40.76, -64.85 22.44 M-96.86 58.3 C-87.36 46, -78.22 35.87, -65.36 22.37 M-96.48 62.16 C-82.45 50.33, -70.33 35.67, -60.23 20.11 M-96.25 63.23 C-87.75 52.9, -78.82 42.58, -58.45 18.87 M-98.11 69.89 C-87.94 56.83, -75.25 45.73, -50.85 17.6 M-97.09 70.13 C-79.22 48.01, -60.65 28.24, -50.6 17.91 M-95.67 76.28 C-86.24 64.59, -75.89 51.77, -42.88 13.51 M-97.48 76.48 C-76.93 53.74, -57.1 29.94, -44.08 15.52 M-96.91 83.08 C-81.58 67.27, -70.12 47.76, -34.43 12.19 M-95.68 81.61 C-83.98 66.29, -69.88 50.22, -37.12 12.65 M-98.48 86.8 C-77.66 65.74, -56.47 41.96, -28.22 10.11 M-97.33 87.28 C-75.08 61.36, -51.98 35.23, -28.49 10.45 M-97.37 95.57 C-76.88 70.21, -55.9 51.12, -19.68 5.98 M-96.87 95.44 C-80.11 75.39, -62.14 54.24, -21.57 7.39 M-96.25 100.76 C-66.99 63.59, -35.5 27.66, -12.3 6.15 M-96.8 100.82 C-73.03 73.28, -50.11 46.05, -13.58 3.5 M-96.83 104.61 C-73.03 79.16, -47.41 50.98, -5.65 2.7 M-96.97 105.54 C-77.87 85.33, -61.31 64.94, -5.6 1.48 M-95.27 113.11 C-70.6 80.33, -39.71 49.53, -0.79 0.57 M-97.94 112.83 C-70.95 83.71, -47.94 55.72, 0.08 0.77 M-96.2 120.36 C-64.98 82.99, -34.38 44.08, 3.08 1 M-96.94 118.41 C-70.53 85.68, -43.06 53.73, 3.45 1.83 M-98.78 124.48 C-68.23 94.55, -40.45 60.96, 7.78 2.77 M-97.84 125.29 C-62.26 83.72, -28.12 44.4, 7.93 4.45 M-98.7 131.94 C-62.02 92.93, -28.12 50.02, 11.56 6.21 M-97.14 131.06 C-59.92 90.27, -24.18 45.97, 11.85 4.58 M-93.64 136.2 C-61.68 100.41, -31.38 64.74, 14.4 5.75 M-95.3 135.47 C-65.3 100.44, -34.68 63.85, 15.85 7.91 M-93.21 138.61 C-54.2 93.89, -18.11 50.3, 18.57 10.82 M-92.68 138.24 C-64.58 106.2, -37.12 74.81, 19.46 9.65 M-89.69 141.01 C-43.82 91.78, -4.16 43, 22.61 10.24 M-88.18 138.66 C-57.76 104.48, -24.83 68.59, 23.17 11.85 M-85.42 142.62 C-52.27 106.34, -21.01 69.7, 27.3 12.05 M-84.6 141.32 C-40.26 91.8, 3.94 39.47, 28.45 12.24 M-82.21 143.65 C-44.33 98.93, -4.99 50.96, 29.62 11.93 M-81.91 142.74 C-36.89 92.8, 6.92 40.92, 31.8 13.51 M-76.65 146.68 C-34.75 95.49, 12.8 42.87, 35.37 14.04 M-76.62 145.65 C-39.53 103.38, -2.29 61.7, 35.35 15.12 M-75.53 146.03 C-50.78 119.33, -24.43 94.6, 37.09 19.42 M-73.03 147.33 C-39.1 106.11, -3.85 65.86, 38.99 18.65 M-71.19 149.14 C-43.38 119.24, -22.96 93.68, 44.08 17.86 M-70.56 147.88 C-30.22 103.69, 9.12 57.55, 42.29 18.55 M-64.89 149.96 C-27.8 105.12, 13.44 60.2, 48.35 20.26 M-67.09 150.59 C-21.9 99.46, 22.46 48.52, 46.61 21.55 M-62.24 154.3 C-20.74 108.83, 17.06 64.42, 49.19 23.54 M-62.25 152.19 C-25.68 110.36, 11.58 67.62, 49.72 22.37 M-59.83 152.47 C-17.82 106.03, 25.47 58.57, 55.18 22.95 M-58.05 152.45 C-29.37 121, -3.14 89.94, 53.85 25.07 M-55.32 155.65 C-18.84 116.39, 15.19 74.47, 58.13 24.02 M-54.89 155.5 C-24.79 121.37, 5.86 85.28, 57.7 25.89 M-50.79 156.77 C-19.48 123.64, 8.39 89.41, 63.05 26.9 M-50.85 157.63 C-13.83 112.8, 26.59 67.9, 62.5 26.54 M-46.83 158.87 C-6.32 114.15, 33.5 67.14, 64.76 31.22 M-47.7 158.58 C-10.42 115.78, 26.76 72.36, 66.63 30 M-45.18 159.74 C-15.74 132.65, 9.19 103.79, 69.86 32.49 M-43.5 161.14 C2.68 111.56, 46.73 60.15, 69.69 31.86 M-40.15 161.31 C1.96 117.35, 39.86 69.86, 74.66 33.95 M-39.94 163.43 C-13.46 131.87, 13.85 100.75, 74.5 33.1 M-38 162.97 C-8.36 132.17, 20.33 100.27, 79.21 34.99 M-35.68 165.24 C4.55 118.14, 45.23 69.71, 77.15 33.44 M-32.26 167.03 C7.69 118.22, 46.92 73.27, 79.82 35.99 M-31.59 166.34 C-3.74 133.64, 26.66 99.76, 81.65 35.13 M-27.18 167.99 C4.94 130.11, 39.23 89.4, 83.11 38.67 M-28.13 168.75 C1.64 131.86, 33.57 95.26, 83.96 38.25 M-25.06 170.01 C0.99 138.7, 25.84 109.43, 83.32 43.31 M-24.62 171.14 C-2.31 143.2, 23.67 116.38, 83.43 44.84 M-20.97 171.48 C20.65 123.95, 60.3 77, 82.76 52.5 M-19.94 172.27 C0.32 146.1, 23.8 120.68, 83.25 51.58 M-16.75 173.42 C7.4 146.09, 27.59 122.18, 84.62 58.08 M-16.41 172.43 C12.41 138.71, 40.65 104.93, 83.4 57.72 M-12.47 176.35 C12.65 143.04, 38.89 115.43, 85.5 62.03 M-13.21 175.16 C15.15 143.97, 41.36 113.15, 83.22 62.86 M-8.41 176.64 C10.13 154.09, 29.76 129.82, 84.78 69.07 M-10.32 176.61 C8.5 154.81, 27.44 133.52, 84.74 68.52 M-3.19 173.9 C29.06 139.33, 54.93 108.81, 82.51 75.05 M-2.52 173.8 C23.97 145.21, 48.51 116.93, 82.8 75.41 M5.72 171.39 C22.06 152.7, 40.75 132.73, 84.06 83.82 M8.07 170.04 C25.73 148.94, 44.1 126.79, 83.64 81.3 M14.47 163.88 C41.52 138.01, 65.38 110.05, 82.07 87.58 M16.59 165.62 C31.62 145.12, 50.04 125.95, 82.96 88.3 M26.8 161.98 C41.11 140.69, 58.21 122.29, 81.75 95.53 M25.45 161.21 C39.29 144.08, 52.7 128.11, 83.26 94.42 M33.35 159.05 C47.95 140.71, 62.67 127.3, 82.15 98.51 M33.69 157.63 C48.13 141.87, 61.28 127.04, 83.22 101.13 M42.93 153.58 C55.74 138.99, 63.62 125.86, 82.17 105.34 M42.36 153.14 C59.24 135.21, 74.74 116.71, 83.72 106.73 M51.18 151.04 C61.11 137.84, 69.34 129.34, 81.14 111.72 M51.18 150.31 C59.71 139.99, 69 130.24, 82.48 114.06 M59.22 147.05 C66.63 137.33, 69.01 134.25, 80.77 120.59 M59.28 146.07 C64.38 141.12, 70.27 134.24, 82.13 119.9 M68.16 142.45 C73.58 137.12, 80.74 131.3, 83.14 126.01 M67.8 141.71 C72.88 136.61, 75.57 133.85, 82.2 125.73" stroke="#40c057" stroke-width="0.5" fill="none"></path><path d="M-1.17 0.45 C-28.12 9.61, -53.52 19.69, -96.07 33.3 M-0.69 0.15 C-20.13 7.52, -38.47 13.87, -95.65 33.06 M-98.22 34.34 C-97.89 60.19, -96.47 88.72, -96.11 133.11 M-96.61 33.18 C-96.6 54.34, -96.03 77.14, -98.04 134.56 M-95.57 136.52 C-74.39 147.46, -49.9 156.92, -11.87 175.34 M-96.71 134.77 C-77.42 144.17, -59 153.26, -11.07 175.99 M-10.02 176.23 C13.76 162.76, 40.25 151.34, 79.13 134.88 M-11.35 174.95 C16.98 162.16, 45.23 148.74, 79.81 134.78 M79 135.78 C81.86 106.67, 80.56 78.81, 83.07 34.47 M79.24 133.18 C80.42 109.66, 82.23 83.64, 82.17 37.03 M82.75 34.31 C58.8 25.77, 33.11 13.62, -0.22 -0.83 M82.31 35.13 C59.04 27.28, 35.23 15.58, 0.61 0.97 M0 0 C0 0, 0 0, 0 0 M0 0 C0 0, 0 0, 0 0" stroke="#087f5b" stroke-width="1" fill="none"></path></g></g><g stroke-linecap="round" transform="translate(16.49761453142446 440) rotate(0 81.5 15)"><path d="M3.01 -0.29 C39.65 2.73, 81.28 -3.71, 162.67 -0.26 M160.9 3.95 C164.11 8.26, 162.49 14.99, 159.95 26.03 M162.35 33.66 C101.59 34.84, 39.89 30.94, 0.45 32.66 M3.84 32.23 C3.52 23.3, -2.86 13.85, -1.83 1.44" stroke="#087f5b" stroke-width="2.5" fill="none" stroke-dasharray="8 10"></path></g><g stroke-linecap="round" transform="translate(700.4976145314251 442) rotate(0 87.49999999999977 14.999999999999972)"><path d="M-1.51 -0.82 C62.4 -4.03, 114.53 -4.86, 177.95 -0.17 M173.02 0.8 C177.4 3.82, 178.47 15.72, 172.43 26.96 M176.89 28.22 C124.07 27.85, 72.01 27.63, -0.22 29.56 M0.72 29.49 C0.32 23.1, 3.52 12.12, -0.39 -3.99" stroke="#862e9c" stroke-width="2.5" fill="none" stroke-dasharray="8 10"></path></g><g stroke-linecap="round" transform="translate(14.49761453142446 487) rotate(0 83 16)"><path d="M-1.88 -0.37 C44.73 6.3, 97.2 2.76, 166.01 1.44 M168.41 1.38 C168.26 5.71, 168.84 22.24, 168.4 29.29 M169.54 35.42 C102.03 35.56, 37.86 32.86, 1.46 32.04 M0.2 32.51 C2.12 21.46, 0.03 11.37, 2.24 3.29" stroke="#087f5b" stroke-width="2.5" fill="none" stroke-dasharray="8 10"></path></g><g stroke-linecap="round" transform="translate(699.4976145314245 484) rotate(0 86.5 14.5)"><path d="M-0.82 3.7 C52.06 -1.58, 104.97 4.25, 172.83 -3.26 M173.8 2.7 C169.93 11.05, 175.27 11.98, 169.96 29.12 M171.22 31.09 C112.86 33.69, 54.92 30.41, -0.44 30.34 M-0.51 29.46 C2.64 23.29, 1.67 9.87, -3.99 3.1" stroke="#862e9c" stroke-width="2.5" fill="none" stroke-dasharray="8 10"></path></g><g stroke-linecap="round" transform="translate(357.49761453142446 657) rotate(0 86.5 17.5)"><path d="M-3.57 0.23 C61.78 1.99, 128.24 0.77, 169.2 1.01 M171.09 0.24 C176.16 12.34, 174.82 28.87, 172.08 34.27 M170.68 33.79 C105.58 37.45, 38.38 35.2, -3.16 37 M-2.56 32.01 C1 20.65, -2.46 10.26, -0.62 2.71" stroke="#087f5b" stroke-width="2.5" fill="none" stroke-dasharray="8 10"></path></g><g stroke-linecap="round" transform="translate(13.49761453142446 536) rotate(0 81.5 15.5)"><path d="M0.03 0.64 C43.28 -2.98, 78.58 3.93, 160.77 -1.11 M164.53 -1.94 C160.4 14.13, 159.83 26.77, 163.89 27.36 M165.77 30.58 C95.57 28.35, 35.28 34.69, 3.74 27.45 M0.47 27.36 C2.65 18.96, -3.2 13.95, 2.54 -2.33" stroke="#087f5b" stroke-width="2.5" fill="none" stroke-dasharray="8 10"></path></g><g stroke-linecap="round" transform="translate(701.4976145314245 532) rotate(0 83.5 15.5)"><path d="M3.7 -1.69 C58.39 -1.83, 125.49 0.52, 163.74 -1.96 M169.7 -2.74 C170.46 10.1, 164.12 11.96, 167.12 32.34 M169.09 28.58 C118.65 26.87, 63.97 29.07, 1.34 31.93 M0.46 34.11 C3.55 21.34, -0.5 3.42, 3.1 -0.22" stroke="#862e9c" stroke-width="2.5" fill="none" stroke-dasharray="8 10"></path></g><g stroke-linecap="round" transform="translate(357.49761453142446 708) rotate(0 85.5 16)"><path d="M0.23 -2.19 C44.05 3.35, 84.12 -0.75, 172.01 3.29 M171.24 3.65 C170.06 9.68, 173.21 13.83, 170.27 35.85 M169.79 33.14 C136.08 32.5, 99.6 26.86, 2 34.08 M-2.99 32.73 C-2.44 20.89, -0.51 14.62, 2.71 -1.01" stroke="#087f5b" stroke-width="2.5" fill="none" stroke-dasharray="8 10"></path></g><g transform="translate(57.99761453142446 444.5) rotate(0 39.5 11.5)"><text x="39.5" y="18" font-family="Helvetica, Segoe UI Emoji" font-size="20px" fill="#000000" text-anchor="middle" style="white-space: pre;" direction="ltr">Gateway</text></g><g transform="translate(748.9976145314236 444.5) rotate(0 39.5 11.5)"><text x="39.5" y="18" font-family="Helvetica, Segoe UI Emoji" font-size="19.999999999999968px" fill="#000000" text-anchor="middle" style="white-space: pre;" direction="ltr">Gateway</text></g><g transform="translate(57.99761453142446 495.5) rotate(0 38.5 11.5)"><text x="38.5" y="18" font-family="Helvetica, Segoe UI Emoji" font-size="20px" fill="#000000" text-anchor="middle" style="white-space: pre;" direction="ltr">Services</text></g><g transform="translate(750.9976145314245 486.5) rotate(0 38.5 11.5)"><text x="38.5" y="18" font-family="Helvetica, Segoe UI Emoji" font-size="20px" fill="#000000" text-anchor="middle" style="white-space: pre;" direction="ltr">Services</text></g><g transform="translate(408.99761453142446 664.5) rotate(0 38.5 11.5)"><text x="38.5" y="18" font-family="Helvetica, Segoe UI Emoji" font-size="20px" fill="#000000" text-anchor="middle" style="white-space: pre;" direction="ltr">Services</text></g><g transform="translate(55.49761453142446 538.5) rotate(0 40 11.5)"><text x="40" y="18" font-family="Helvetica, Segoe UI Emoji" font-size="20px" fill="#000000" text-anchor="middle" style="white-space: pre;" direction="ltr">(data, ...)</text></g><g transform="translate(782.9976145314245 530.5) rotate(0 8.5 11.5)"><text x="8.5" y="18" font-family="Helvetica, Segoe UI Emoji" font-size="20px" fill="#000000" text-anchor="middle" style="white-space: pre;" direction="ltr">...</text></g><g transform="translate(436.99761453142446 709.5) rotate(0 8.5 11.5)"><text x="8.5" y="18" font-family="Helvetica, Segoe UI Emoji" font-size="20px" fill="#000000" text-anchor="middle" style="white-space: pre;" direction="ltr">...</text></g><g stroke-linecap="round"><g transform="translate(383.7329821097936 217.8251550719142) rotate(0 -137.94801043200903 112.08742246404293)"><path d="M0 0 C-45.98 37.36, -229.91 186.81, -275.9 224.17 M0 0 C-45.98 37.36, -229.91 186.81, -275.9 224.17" stroke="#e67700" stroke-width="1" fill="none"></path></g><g transform="translate(383.7329821097936 217.8251550719142) rotate(0 -137.94801043200903 112.08742246404293)"><path d="M-260.49 198.43 C-265.26 206.41, -270.04 214.39, -275.9 224.17 M-260.49 198.43 C-265.77 207.27, -271.06 216.1, -275.9 224.17" stroke="#e67700" stroke-width="1" fill="none"></path></g><g transform="translate(383.7329821097936 217.8251550719142) rotate(0 -137.94801043200903 112.08742246404293)"><path d="M-247.55 214.36 C-256.33 217.4, -265.12 220.44, -275.9 224.17 M-247.55 214.36 C-257.27 217.73, -267 221.1, -275.9 224.17" stroke="#e67700" stroke-width="1" fill="none"></path></g></g><g transform="translate(368.49761453142446 472) rotate(0 67.5 11.5)"><text x="0" y="18" font-family="Helvetica, Segoe UI Emoji" font-size="20px" fill="#000000" text-anchor="start" style="white-space: pre;" direction="ltr">Virtual Network</text></g><g stroke-linecap="round"><g transform="translate(185.12261453142446 462.293684724059) rotate(0 89.19872282082326 0.5542137079572456)"><path d="M0 0 C29.73 0.18, 148.66 0.92, 178.4 1.11 M0 0 C29.73 0.18, 148.66 0.92, 178.4 1.11" stroke="#1864ab" stroke-width="1" fill="none"></path></g><g transform="translate(185.12261453142446 462.293684724059) rotate(0 89.19872282082326 0.5542137079572456)"><path d="M150.14 11.19 C158.67 8.15, 167.19 5.11, 178.4 1.11 M150.14 11.19 C157.72 8.49, 165.3 5.78, 178.4 1.11" stroke="#1864ab" stroke-width="1" fill="none"></path></g><g transform="translate(185.12261453142446 462.293684724059) rotate(0 89.19872282082326 0.5542137079572456)"><path d="M150.27 -9.33 C158.76 -6.18, 167.25 -3.03, 178.4 1.11 M150.27 -9.33 C157.82 -6.53, 165.36 -3.73, 178.4 1.11" stroke="#1864ab" stroke-width="1" fill="none"></path></g></g><g stroke-linecap="round"><g transform="translate(331.49761453142446 501) rotate(0 -75 -0.15561413256065748)"><path d="M0 0 C-25 -0.05, -125 -0.26, -150 -0.31 M0 0 C-25 -0.05, -125 -0.26, -150 -0.31" stroke="#1864ab" stroke-width="1" fill="none"></path></g><g transform="translate(331.49761453142446 501) rotate(0 -75 -0.15561413256065748)"><path d="M-121.79 -10.51 C-130.03 -7.53, -138.27 -4.55, -150 -0.31 M-121.79 -10.51 C-127.55 -8.43, -133.32 -6.34, -150 -0.31" stroke="#1864ab" stroke-width="1" fill="none"></path></g><g transform="translate(331.49761453142446 501) rotate(0 -75 -0.15561413256065748)"><path d="M-121.83 10.01 C-130.06 6.99, -138.28 3.98, -150 -0.31 M-121.83 10.01 C-127.59 7.9, -133.35 5.79, -150 -0.31" stroke="#1864ab" stroke-width="1" fill="none"></path></g></g><g stroke-linecap="round"><g transform="translate(477.11024816604277 207.69140147005206) rotate(0 154.08058287766016 115.50583615414799)"><path d="M-0.07 1.14 C51.59 39.62, 258.23 192.14, 309.73 230.32 M-1.57 0.69 C49.96 38.9, 256.63 190.78, 308.8 228.73" stroke="#e67700" stroke-width="1" fill="none"></path></g><g transform="translate(477.11024816604277 207.69140147005206) rotate(0 154.08058287766016 115.50583615414799)"><path d="M281.89 220.41 C289.73 221.45, 297.65 223.25, 308.03 227.22 M279.92 220.69 C288.23 221.93, 295.46 225.26, 308.06 228.26" stroke="#e67700" stroke-width="1" fill="none"></path></g><g transform="translate(477.11024816604277 207.69140147005206) rotate(0 154.08058287766016 115.50583615414799)"><path d="M294 203.85 C298.36 209.53, 302.89 215.99, 308.03 227.22 M292.04 204.13 C297.12 209.79, 301.14 217.49, 308.06 228.26" stroke="#e67700" stroke-width="1" fill="none"></path></g></g><g stroke-linecap="round"><g transform="translate(698.3369643390749 456.19080503562407) rotate(0 -92.55827270265553 -0.5070944070805297)"><path d="M0 0 C-30.85 -0.17, -154.26 -0.85, -185.12 -1.01 M0 0 C-30.85 -0.17, -154.26 -0.85, -185.12 -1.01" stroke="#1864ab" stroke-width="1" fill="none"></path></g><g transform="translate(698.3369643390749 456.19080503562407) rotate(0 -92.55827270265553 -0.5070944070805297)"><path d="M-156.87 -11.12 C-163.31 -8.82, -169.74 -6.51, -185.12 -1.01 M-156.87 -11.12 C-164.14 -8.52, -171.41 -5.92, -185.12 -1.01" stroke="#1864ab" stroke-width="1" fill="none"></path></g><g transform="translate(698.3369643390749 456.19080503562407) rotate(0 -92.55827270265553 -0.5070944070805297)"><path d="M-156.98 9.4 C-163.39 7.03, -169.81 4.65, -185.12 -1.01 M-156.98 9.4 C-164.22 6.72, -171.46 4.04, -185.12 -1.01" stroke="#1864ab" stroke-width="1" fill="none"></path></g></g><g stroke-linecap="round"><g transform="translate(549.4976145314245 499) rotate(0 75.1875 -0.07940662861085457)"><path d="M0 0 C25.06 -0.03, 125.31 -0.13, 150.38 -0.16 M0 0 C25.06 -0.03, 125.31 -0.13, 150.38 -0.16" stroke="#1864ab" stroke-width="1" fill="none"></path></g><g transform="translate(549.4976145314245 499) rotate(0 75.1875 -0.07940662861085457)"><path d="M122.2 10.13 C132.26 6.46, 142.33 2.78, 150.38 -0.16 M122.2 10.13 C131.65 6.68, 141.11 3.22, 150.38 -0.16" stroke="#1864ab" stroke-width="1" fill="none"></path></g><g transform="translate(549.4976145314245 499) rotate(0 75.1875 -0.07940662861085457)"><path d="M122.17 -10.39 C132.25 -6.73, 142.32 -3.08, 150.38 -0.16 M122.17 -10.39 C131.64 -6.96, 141.1 -3.52, 150.38 -0.16" stroke="#1864ab" stroke-width="1" fill="none"></path></g></g><g stroke-linecap="round"><g transform="translate(440.98548794808175 66.84263757736633) rotate(0 0.027259307322708537 44.078681211316784)"><path d="M0 0 C0.01 14.69, 0.05 73.46, 0.05 88.16 M0 0 C0.01 14.69, 0.05 73.46, 0.05 88.16" stroke="#e67700" stroke-width="1" fill="none"></path></g><g transform="translate(440.98548794808175 66.84263757736633) rotate(0 0.027259307322708537 44.078681211316784)"><path d="M-10.22 59.97 C-7.38 67.77, -4.53 75.57, 0.05 88.16 M-10.22 59.97 C-6.98 68.86, -3.74 77.75, 0.05 88.16" stroke="#e67700" stroke-width="1" fill="none"></path></g><g transform="translate(440.98548794808175 66.84263757736633) rotate(0 0.027259307322708537 44.078681211316784)"><path d="M10.3 59.96 C7.46 67.76, 4.63 75.57, 0.05 88.16 M10.3 59.96 C7.07 68.85, 3.84 77.74, 0.05 88.16" stroke="#e67700" stroke-width="1" fill="none"></path></g></g><g stroke-linecap="round"><g transform="translate(111.95011981019206 438) rotate(0 141.726192154471 -115.30145543299615)"><path d="M0 0 C47.24 -38.43, 236.21 -192.17, 283.45 -230.6 M0 0 C47.24 -38.43, 236.21 -192.17, 283.45 -230.6" stroke="#e67700" stroke-width="1" fill="none"></path></g><g transform="translate(111.95011981019206 438) rotate(0 141.726192154471 -115.30145543299615)"><path d="M268.06 -204.85 C274.13 -215, 280.19 -225.15, 283.45 -230.6 M268.06 -204.85 C273.53 -214, 278.99 -223.14, 283.45 -230.6" stroke="#e67700" stroke-width="1" fill="none"></path></g><g transform="translate(111.95011981019206 438) rotate(0 141.726192154471 -115.30145543299615)"><path d="M255.11 -220.77 C266.28 -224.65, 277.45 -228.52, 283.45 -230.6 M255.11 -220.77 C265.17 -224.26, 275.24 -227.75, 283.45 -230.6" stroke="#e67700" stroke-width="1" fill="none"></path></g></g><g stroke-linecap="round"><g transform="translate(785.304967639983 436) rotate(0 -155.77720473214845 -114)"><path d="M0 0 C-51.93 -38, -259.63 -190, -311.55 -228 M0 0 C-51.93 -38, -259.63 -190, -311.55 -228" stroke="#e67700" stroke-width="1" fill="none"></path></g><g transform="translate(785.304967639983 436) rotate(0 -155.77720473214845 -114)"><path d="M-282.75 -219.63 C-290.52 -221.89, -298.29 -224.15, -311.55 -228 M-282.75 -219.63 C-289.92 -221.72, -297.1 -223.8, -311.55 -228" stroke="#e67700" stroke-width="1" fill="none"></path></g><g transform="translate(785.304967639983 436) rotate(0 -155.77720473214845 -114)"><path d="M-294.86 -203.07 C-299.37 -209.79, -303.87 -216.52, -311.55 -228 M-294.86 -203.07 C-299.02 -209.28, -303.18 -215.49, -311.55 -228" stroke="#e67700" stroke-width="1" fill="none"></path></g></g><g stroke-linecap="round"><g transform="translate(440.9077045286226 149.2190565741202) rotate(0 -0.051078752134912975 -44.45260034047765)"><path d="M0 0 C-0.02 -14.82, -0.09 -74.09, -0.1 -88.91 M0 0 C-0.02 -14.82, -0.09 -74.09, -0.1 -88.91" stroke="#e67700" stroke-width="1" fill="none"></path></g><g transform="translate(440.9077045286226 149.2190565741202) rotate(0 -0.051078752134912975 -44.45260034047765)"><path d="M10.19 -60.73 C7.76 -67.37, 5.33 -74.02, -0.1 -88.91 M10.19 -60.73 C8.09 -66.49, 5.98 -72.25, -0.1 -88.91" stroke="#e67700" stroke-width="1" fill="none"></path></g><g transform="translate(440.9077045286226 149.2190565741202) rotate(0 -0.051078752134912975 -44.45260034047765)"><path d="M-10.33 -60.7 C-7.92 -67.36, -5.5 -74.01, -0.1 -88.91 M-10.33 -60.7 C-8.24 -66.47, -6.15 -72.24, -0.1 -88.91" stroke="#e67700" stroke-width="1" fill="none"></path></g></g><g stroke-linecap="round"><g transform="translate(347.49761453142446 463) rotate(0 -81 0)"><path d="M0 0 C-27 0, -135 0, -162 0 M0 0 C-27 0, -135 0, -162 0" stroke="#1864ab" stroke-width="1" fill="none"></path></g><g transform="translate(347.49761453142446 463) rotate(0 -81 0)"><path d="M-133.81 -10.26 C-139.86 -8.06, -145.91 -5.86, -162 0 M-133.81 -10.26 C-140.32 -7.89, -146.83 -5.52, -162 0" stroke="#1864ab" stroke-width="1" fill="none"></path></g><g transform="translate(347.49761453142446 463) rotate(0 -81 0)"><path d="M-133.81 10.26 C-139.86 8.06, -145.91 5.86, -162 0 M-133.81 10.26 C-140.32 7.89, -146.83 5.52, -162 0" stroke="#1864ab" stroke-width="1" fill="none"></path></g></g><g stroke-linecap="round"><g transform="translate(188.49761453142446 502) rotate(0 76.5 0)"><path d="M0 0 C25.5 0, 127.5 0, 153 0 M0 0 C25.5 0, 127.5 0, 153 0" stroke="#1864ab" stroke-width="1" fill="none"></path></g><g transform="translate(188.49761453142446 502) rotate(0 76.5 0)"><path d="M124.81 10.26 C135.25 6.46, 145.7 2.66, 153 0 M124.81 10.26 C132.69 7.39, 140.57 4.52, 153 0" stroke="#1864ab" stroke-width="1" fill="none"></path></g><g transform="translate(188.49761453142446 502) rotate(0 76.5 0)"><path d="M124.81 -10.26 C135.25 -6.46, 145.7 -2.66, 153 0 M124.81 -10.26 C132.69 -7.39, 140.57 -4.52, 153 0" stroke="#1864ab" stroke-width="1" fill="none"></path></g></g><g stroke-linecap="round"><g transform="translate(516.6573788340004 454.70742911118356) rotate(0 94.42011784871261 0.07379445803118756)"><path d="M0 0 C31.47 0.02, 157.37 0.12, 188.84 0.15 M0 0 C31.47 0.02, 157.37 0.12, 188.84 0.15" stroke="#1864ab" stroke-width="1" fill="none"></path></g><g transform="translate(516.6573788340004 454.70742911118356) rotate(0 94.42011784871261 0.07379445803118756)"><path d="M160.64 10.39 C169.36 7.22, 178.09 4.05, 188.84 0.15 M160.64 10.39 C166.73 8.18, 172.81 5.97, 188.84 0.15" stroke="#1864ab" stroke-width="1" fill="none"></path></g><g transform="translate(516.6573788340004 454.70742911118356) rotate(0 94.42011784871261 0.07379445803118756)"><path d="M160.66 -10.14 C169.37 -6.95, 178.09 -3.77, 188.84 0.15 M160.66 -10.14 C166.74 -7.92, 172.82 -5.7, 188.84 0.15" stroke="#1864ab" stroke-width="1" fill="none"></path></g></g><g stroke-linecap="round"><g transform="translate(435.57760948809005 530.1041839428246) rotate(0 0.3144783504884572 63.647025739028976)"><path d="M0 0 C0.1 21.22, 0.52 106.08, 0.63 127.29 M0 0 C0.1 21.22, 0.52 106.08, 0.63 127.29" stroke="#1864ab" stroke-width="1" fill="none"></path></g><g transform="translate(435.57760948809005 530.1041839428246) rotate(0 0.3144783504884572 63.647025739028976)"><path d="M-9.77 99.15 C-6.9 106.91, -4.04 114.67, 0.63 127.29 M-9.77 99.15 C-7.24 106, -4.71 112.84, 0.63 127.29" stroke="#1864ab" stroke-width="1" fill="none"></path></g><g transform="translate(435.57760948809005 530.1041839428246) rotate(0 0.3144783504884572 63.647025739028976)"><path d="M10.75 99.05 C7.96 106.84, 5.17 114.62, 0.63 127.29 M10.75 99.05 C8.29 105.92, 5.83 112.78, 0.63 127.29" stroke="#1864ab" stroke-width="1" fill="none"></path></g></g><g stroke-linecap="round"><g transform="translate(462.52560043778294 397.4927968753929) rotate(0 16.945956939412724 18.45781206161635)" fill-rule="evenodd"><path d="M0 0 L-0.04 37.06 L1.75 38.61 L7.84 39.99 L18.12 40.42 L27.95 39.73 L33.17 38.09 L34.01 37.03 L33.97 -0.5 L26.96 -2.71 L16.48 -3.5 L8.07 -3.03 L1.46 -1.42 L0 0" stroke="none" stroke-width="0" fill="#228be6" fill-rule="evenodd"></path><path d="M0 0 C0.02 5.53, 0.11 27.03, 0.11 33.2 C0.11 39.36, -0.27 36.07, 0.01 36.97 C0.28 37.88, 0.45 38.1, 1.75 38.61 C3.06 39.11, 5.11 39.69, 7.84 39.99 C10.57 40.29, 14.77 40.46, 18.12 40.42 C21.48 40.38, 25.44 40.12, 27.95 39.73 C30.46 39.34, 32.18 38.59, 33.17 38.09 C34.16 37.58, 33.77 37.44, 33.91 36.7 C34.05 35.97, 34.01 39.31, 34.01 33.66 C34.02 28.01, 33.97 8.42, 33.93 2.78 C33.89 -2.85, 34.14 0.63, 33.75 -0.13 C33.35 -0.89, 32.69 -1.33, 31.56 -1.76 C30.43 -2.19, 29.48 -2.42, 26.96 -2.71 C24.45 -3, 19.62 -3.45, 16.48 -3.5 C13.33 -3.55, 10.57 -3.37, 8.07 -3.03 C5.57 -2.68, 2.8 -1.92, 1.46 -1.42 C0.11 -0.92, 0.22 -0.26, -0.02 -0.02 C-0.26 0.22, 0 0, 0 0 M0 0 C0.02 5.53, 0.11 27.03, 0.11 33.2 C0.11 39.36, -0.27 36.07, 0.01 36.97 C0.28 37.88, 0.45 38.1, 1.75 38.61 C3.06 39.11, 5.11 39.69, 7.84 39.99 C10.57 40.29, 14.77 40.46, 18.12 40.42 C21.48 40.38, 25.44 40.12, 27.95 39.73 C30.46 39.34, 32.18 38.59, 33.17 38.09 C34.16 37.58, 33.77 37.44, 33.91 36.7 C34.05 35.97, 34.01 39.31, 34.01 33.66 C34.02 28.01, 33.97 8.42, 33.93 2.78 C33.89 -2.85, 34.14 0.63, 33.75 -0.13 C33.35 -0.89, 32.69 -1.33, 31.56 -1.76 C30.43 -2.19, 29.48 -2.42, 26.96 -2.71 C24.45 -3, 19.62 -3.45, 16.48 -3.5 C13.33 -3.55, 10.57 -3.37, 8.07 -3.03 C5.57 -2.68, 2.8 -1.92, 1.46 -1.42 C0.11 -0.92, 0.22 -0.26, -0.02 -0.02 C-0.26 0.22, 0 0, 0 0" stroke="#0a11d3" stroke-width="1" fill="none"></path></g></g><g stroke-linecap="round"><g transform="translate(462.5127574718932 422.756555440321) rotate(0 17.03259515724551 1.738887255702764)"><path d="M0 0 C0.15 0.25, 0.1 1.04, 0.9 1.51 C1.69 1.97, 3.26 2.43, 4.77 2.77 C6.27 3.11, 7.71 3.4, 9.92 3.54 C12.12 3.68, 15.07 3.68, 17.99 3.61 C20.9 3.54, 24.92 3.5, 27.4 3.12 C29.89 2.74, 31.79 1.89, 32.9 1.35 C34.01 0.8, 33.87 0.08, 34.07 -0.17 M0 0 C0.15 0.25, 0.1 1.04, 0.9 1.51 C1.69 1.97, 3.26 2.43, 4.77 2.77 C6.27 3.11, 7.71 3.4, 9.92 3.54 C12.12 3.68, 15.07 3.68, 17.99 3.61 C20.9 3.54, 24.92 3.5, 27.4 3.12 C29.89 2.74, 31.79 1.89, 32.9 1.35 C34.01 0.8, 33.87 0.08, 34.07 -0.17" stroke="#0a11d3" stroke-width="1" fill="none"></path></g></g><g stroke-linecap="round"><g transform="translate(462.12684404785887 410.2637429369084) rotate(0 17.03259515724551 1.738887255702764)"><path d="M0 0 C0.15 0.25, 0.1 1.04, 0.9 1.51 C1.69 1.97, 3.26 2.43, 4.77 2.77 C6.27 3.11, 7.71 3.4, 9.92 3.54 C12.12 3.68, 15.07 3.68, 17.99 3.61 C20.9 3.54, 24.92 3.5, 27.4 3.12 C29.89 2.74, 31.79 1.89, 32.9 1.35 C34.01 0.8, 33.87 0.08, 34.07 -0.17 M0 0 C0.15 0.25, 0.1 1.04, 0.9 1.51 C1.69 1.97, 3.26 2.43, 4.77 2.77 C6.27 3.11, 7.71 3.4, 9.92 3.54 C12.12 3.68, 15.07 3.68, 17.99 3.61 C20.9 3.54, 24.92 3.5, 27.4 3.12 C29.89 2.74, 31.79 1.89, 32.9 1.35 C34.01 0.8, 33.87 0.08, 34.07 -0.17" stroke="#0a11d3" stroke-width="1" fill="none"></path></g></g><g stroke-linecap="round" transform="translate(461.23628929244023 395.42511931124625) rotate(0 16.905809383842723 3.419072760255858)"><path d="M16.91 0 C20.35 -0.04, 25 0.33, 27.77 0.8 C30.55 1.27, 32.93 2.1, 33.55 2.83 C34.18 3.55, 33.36 4.49, 31.55 5.13 C29.74 5.76, 26.09 6.38, 22.69 6.63 C19.28 6.88, 14.53 6.88, 11.12 6.63 C7.72 6.38, 4.08 5.76, 2.26 5.13 C0.45 4.49, -0.37 3.55, 0.26 2.83 C0.89 2.1, 3.26 1.27, 6.04 0.8 C8.81 0.33, 15.09 0.12, 16.91 0 C18.72 -0.12, 16.91 0.01, 16.91 0.07 M16.91 0 C20.35 -0.04, 25 0.33, 27.77 0.8 C30.55 1.27, 32.93 2.1, 33.55 2.83 C34.18 3.55, 33.36 4.49, 31.55 5.13 C29.74 5.76, 26.09 6.38, 22.69 6.63 C19.28 6.88, 14.53 6.88, 11.12 6.63 C7.72 6.38, 4.08 5.76, 2.26 5.13 C0.45 4.49, -0.37 3.55, 0.26 2.83 C0.89 2.1, 3.26 1.27, 6.04 0.8 C8.81 0.33, 15.09 0.12, 16.91 0 C18.72 -0.12, 16.91 0.01, 16.91 0.07" stroke="none" stroke-width="0" fill="#fff"></path><path d="M16.91 0 C20.35 -0.04, 25 0.33, 27.77 0.8 C30.55 1.27, 32.93 2.1, 33.55 2.83 C34.18 3.55, 33.36 4.49, 31.55 5.13 C29.74 5.76, 26.09 6.38, 22.69 6.63 C19.28 6.88, 14.53 6.88, 11.12 6.63 C7.72 6.38, 4.08 5.76, 2.26 5.13 C0.45 4.49, -0.37 3.55, 0.26 2.83 C0.89 2.1, 3.26 1.27, 6.04 0.8 C8.81 0.33, 15.09 0.12, 16.91 0 C18.72 -0.12, 16.91 0.01, 16.91 0.07 M16.91 0 C20.35 -0.04, 25 0.33, 27.77 0.8 C30.55 1.27, 32.93 2.1, 33.55 2.83 C34.18 3.55, 33.36 4.49, 31.55 5.13 C29.74 5.76, 26.09 6.38, 22.69 6.63 C19.28 6.88, 14.53 6.88, 11.12 6.63 C7.72 6.38, 4.08 5.76, 2.26 5.13 C0.45 4.49, -0.37 3.55, 0.26 2.83 C0.89 2.1, 3.26 1.27, 6.04 0.8 C8.81 0.33, 15.09 0.12, 16.91 0 C18.72 -0.12, 16.91 0.01, 16.91 0.07" stroke="#0a11d3" stroke-width="1" fill="none"></path></g><g stroke-linecap="round" transform="translate(488.82144873571906 404.9053315705048) rotate(0 2.477708421343891 2.689072119327932)"><path d="M2.48 0 C2.98 -0.03, 3.66 0.26, 4.07 0.63 C4.48 1, 4.83 1.65, 4.92 2.22 C5.01 2.79, 4.89 3.53, 4.62 4.03 C4.36 4.53, 3.82 5.02, 3.33 5.22 C2.83 5.41, 2.13 5.41, 1.63 5.22 C1.13 5.02, 0.6 4.53, 0.33 4.03 C0.07 3.53, -0.05 2.79, 0.04 2.22 C0.13 1.65, 0.48 1, 0.89 0.63 C1.29 0.26, 2.21 0.1, 2.48 0 C2.74 -0.1, 2.48 0.01, 2.48 0.05 M2.48 0 C2.98 -0.03, 3.66 0.26, 4.07 0.63 C4.48 1, 4.83 1.65, 4.92 2.22 C5.01 2.79, 4.89 3.53, 4.62 4.03 C4.36 4.53, 3.82 5.02, 3.33 5.22 C2.83 5.41, 2.13 5.41, 1.63 5.22 C1.13 5.02, 0.6 4.53, 0.33 4.03 C0.07 3.53, -0.05 2.79, 0.04 2.22 C0.13 1.65, 0.48 1, 0.89 0.63 C1.29 0.26, 2.21 0.1, 2.48 0 C2.74 -0.1, 2.48 0.01, 2.48 0.05" stroke="none" stroke-width="0" fill="#fff"></path><path d="M2.48 0 C2.98 -0.03, 3.66 0.26, 4.07 0.63 C4.48 1, 4.83 1.65, 4.92 2.22 C5.01 2.79, 4.89 3.53, 4.62 4.03 C4.36 4.53, 3.82 5.02, 3.33 5.22 C2.83 5.41, 2.13 5.41, 1.63 5.22 C1.13 5.02, 0.6 4.53, 0.33 4.03 C0.07 3.53, -0.05 2.79, 0.04 2.22 C0.13 1.65, 0.48 1, 0.89 0.63 C1.29 0.26, 2.21 0.1, 2.48 0 C2.74 -0.1, 2.48 0.01, 2.48 0.05 M2.48 0 C2.98 -0.03, 3.66 0.26, 4.07 0.63 C4.48 1, 4.83 1.65, 4.92 2.22 C5.01 2.79, 4.89 3.53, 4.62 4.03 C4.36 4.53, 3.82 5.02, 3.33 5.22 C2.83 5.41, 2.13 5.41, 1.63 5.22 C1.13 5.02, 0.6 4.53, 0.33 4.03 C0.07 3.53, -0.05 2.79, 0.04 2.22 C0.13 1.65, 0.48 1, 0.89 0.63 C1.29 0.26, 2.21 0.1, 2.48 0 C2.74 -0.1, 2.48 0.01, 2.48 0.05" stroke="#0a11d3" stroke-width="1" fill="none"></path></g><g stroke-linecap="round" transform="translate(488.82144873571906 416.71034806125954) rotate(0 2.477708421343891 2.689072119327932)"><path d="M2.48 0 C2.98 -0.03, 3.66 0.26, 4.07 0.63 C4.48 1, 4.83 1.65, 4.92 2.22 C5.01 2.79, 4.89 3.53, 4.62 4.03 C4.36 4.53, 3.82 5.02, 3.33 5.22 C2.83 5.41, 2.13 5.41, 1.63 5.22 C1.13 5.02, 0.6 4.53, 0.33 4.03 C0.07 3.53, -0.05 2.79, 0.04 2.22 C0.13 1.65, 0.48 1, 0.89 0.63 C1.29 0.26, 2.21 0.1, 2.48 0 C2.74 -0.1, 2.48 0.01, 2.48 0.05 M2.48 0 C2.98 -0.03, 3.66 0.26, 4.07 0.63 C4.48 1, 4.83 1.65, 4.92 2.22 C5.01 2.79, 4.89 3.53, 4.62 4.03 C4.36 4.53, 3.82 5.02, 3.33 5.22 C2.83 5.41, 2.13 5.41, 1.63 5.22 C1.13 5.02, 0.6 4.53, 0.33 4.03 C0.07 3.53, -0.05 2.79, 0.04 2.22 C0.13 1.65, 0.48 1, 0.89 0.63 C1.29 0.26, 2.21 0.1, 2.48 0 C2.74 -0.1, 2.48 0.01, 2.48 0.05" stroke="none" stroke-width="0" fill="#fff"></path><path d="M2.48 0 C2.98 -0.03, 3.66 0.26, 4.07 0.63 C4.48 1, 4.83 1.65, 4.92 2.22 C5.01 2.79, 4.89 3.53, 4.62 4.03 C4.36 4.53, 3.82 5.02, 3.33 5.22 C2.83 5.41, 2.13 5.41, 1.63 5.22 C1.13 5.02, 0.6 4.53, 0.33 4.03 C0.07 3.53, -0.05 2.79, 0.04 2.22 C0.13 1.65, 0.48 1, 0.89 0.63 C1.29 0.26, 2.21 0.1, 2.48 0 C2.74 -0.1, 2.48 0.01, 2.48 0.05 M2.48 0 C2.98 -0.03, 3.66 0.26, 4.07 0.63 C4.48 1, 4.83 1.65, 4.92 2.22 C5.01 2.79, 4.89 3.53, 4.62 4.03 C4.36 4.53, 3.82 5.02, 3.33 5.22 C2.83 5.41, 2.13 5.41, 1.63 5.22 C1.13 5.02, 0.6 4.53, 0.33 4.03 C0.07 3.53, -0.05 2.79, 0.04 2.22 C0.13 1.65, 0.48 1, 0.89 0.63 C1.29 0.26, 2.21 0.1, 2.48 0 C2.74 -0.1, 2.48 0.01, 2.48 0.05" stroke="#0a11d3" stroke-width="1" fill="none"></path></g><g stroke-linecap="round" transform="translate(488.82144873571906 429.54083244558217) rotate(0 2.477708421343891 2.689072119327932)"><path d="M2.48 0 C2.98 -0.03, 3.66 0.26, 4.07 0.63 C4.48 1, 4.83 1.65, 4.92 2.22 C5.01 2.79, 4.89 3.53, 4.62 4.03 C4.36 4.53, 3.82 5.02, 3.33 5.22 C2.83 5.41, 2.13 5.41, 1.63 5.22 C1.13 5.02, 0.6 4.53, 0.33 4.03 C0.07 3.53, -0.05 2.79, 0.04 2.22 C0.13 1.65, 0.48 1, 0.89 0.63 C1.29 0.26, 2.21 0.1, 2.48 0 C2.74 -0.1, 2.48 0.01, 2.48 0.05 M2.48 0 C2.98 -0.03, 3.66 0.26, 4.07 0.63 C4.48 1, 4.83 1.65, 4.92 2.22 C5.01 2.79, 4.89 3.53, 4.62 4.03 C4.36 4.53, 3.82 5.02, 3.33 5.22 C2.83 5.41, 2.13 5.41, 1.63 5.22 C1.13 5.02, 0.6 4.53, 0.33 4.03 C0.07 3.53, -0.05 2.79, 0.04 2.22 C0.13 1.65, 0.48 1, 0.89 0.63 C1.29 0.26, 2.21 0.1, 2.48 0 C2.74 -0.1, 2.48 0.01, 2.48 0.05" stroke="none" stroke-width="0" fill="#fff"></path><path d="M2.48 0 C2.98 -0.03, 3.66 0.26, 4.07 0.63 C4.48 1, 4.83 1.65, 4.92 2.22 C5.01 2.79, 4.89 3.53, 4.62 4.03 C4.36 4.53, 3.82 5.02, 3.33 5.22 C2.83 5.41, 2.13 5.41, 1.63 5.22 C1.13 5.02, 0.6 4.53, 0.33 4.03 C0.07 3.53, -0.05 2.79, 0.04 2.22 C0.13 1.65, 0.48 1, 0.89 0.63 C1.29 0.26, 2.21 0.1, 2.48 0 C2.74 -0.1, 2.48 0.01, 2.48 0.05 M2.48 0 C2.98 -0.03, 3.66 0.26, 4.07 0.63 C4.48 1, 4.83 1.65, 4.92 2.22 C5.01 2.79, 4.89 3.53, 4.62 4.03 C4.36 4.53, 3.82 5.02, 3.33 5.22 C2.83 5.41, 2.13 5.41, 1.63 5.22 C1.13 5.02, 0.6 4.53, 0.33 4.03 C0.07 3.53, -0.05 2.79, 0.04 2.22 C0.13 1.65, 0.48 1, 0.89 0.63 C1.29 0.26, 2.21 0.1, 2.48 0 C2.74 -0.1, 2.48 0.01, 2.48 0.05" stroke="#0a11d3" stroke-width="1" fill="none"></path></g><g transform="translate(432.99761453142446 10) rotate(0 10 21)"><text x="10" y="33" font-family="Helvetica, Segoe UI Emoji" font-size="36px" fill="#5c940d" text-anchor="middle" style="white-space: pre;" direction="ltr">?</text></g><g transform="translate(460.49761453142446 96.5) rotate(0 5.5 11.5)"><text x="5.5" y="18" font-family="Helvetica, Segoe UI Emoji" font-size="20px" fill="#e67700" text-anchor="middle" style="white-space: pre;" direction="ltr">1</text></g><g transform="translate(204.99761453142446 302) rotate(0 5.5 11.5)"><text x="5.5" y="18" font-family="Helvetica, Segoe UI Emoji" font-size="20px" fill="#087f5b" text-anchor="middle" style="white-space: pre;" direction="ltr">2</text></g><g transform="translate(662.9976145314245 307) rotate(0 5.5 11.5)"><text x="5.5" y="18" font-family="Helvetica, Segoe UI Emoji" font-size="20px" fill="#862e9c" text-anchor="middle" style="white-space: pre;" direction="ltr">3</text></g><g transform="translate(448.99761453142446 570) rotate(0 5.5 11.5)"><text x="5.5" y="18" font-family="Helvetica, Segoe UI Emoji" font-size="20px" fill="#2b8a3e" text-anchor="middle" style="white-space: pre;" direction="ltr">6</text></g><g transform="translate(440.99761453142446 408) rotate(0 5.5 11.5)"><text x="5.5" y="18" font-family="Helvetica, Segoe UI Emoji" font-size="20px" fill="#1864ab" text-anchor="middle" style="white-space: pre;" direction="ltr">0</text></g><g stroke-linecap="round"><g transform="translate(349.7041052947807 521.353379541313) rotate(0 78.22763723351147 -0.07202529111293643)"><path d="M0 0 C26.08 -0.02, 130.38 -0.12, 156.46 -0.14 M0 0 C26.08 -0.02, 130.38 -0.12, 156.46 -0.14" stroke="#1864ab" stroke-width="1" fill="none"></path></g></g><g stroke-linecap="round"><g transform="translate(350.3185105438322 521.7361170310354) rotate(0 -2.3183348113877855 -25.406287456768013)"><path d="M0 0 C-1.49 -0.4, -6.88 -1.36, -8.93 -2.38 C-10.98 -3.4, -11.32 -4.39, -12.31 -6.13 C-13.29 -7.88, -14.55 -9.13, -14.85 -12.84 C-15.15 -16.55, -14.67 -24.61, -14.09 -28.39 C-13.51 -32.17, -13.02 -32.91, -11.37 -35.52 C-9.71 -38.12, -7.03 -41.55, -4.18 -44.02 C-1.34 -46.5, 3.29 -49.32, 5.7 -50.37 C8.12 -51.41, 9.54 -50.3, 10.31 -50.29 M0 0 C-1.49 -0.4, -6.88 -1.36, -8.93 -2.38 C-10.98 -3.4, -11.32 -4.39, -12.31 -6.13 C-13.29 -7.88, -14.55 -9.13, -14.85 -12.84 C-15.15 -16.55, -14.67 -24.61, -14.09 -28.39 C-13.51 -32.17, -13.02 -32.91, -11.37 -35.52 C-9.71 -38.12, -7.03 -41.55, -4.18 -44.02 C-1.34 -46.5, 3.29 -49.32, 5.7 -50.37 C8.12 -51.41, 9.54 -50.3, 10.31 -50.29" stroke="#1864ab" stroke-width="1" fill="none"></path></g></g><g stroke-linecap="round"><g transform="translate(360.8990094130286 470.1668197882367) rotate(0 32.16644356061215 -26.20890208584467)"><path d="M0 0 C-0.87 -3.05, -4.3 -13.6, -5.22 -18.32 C-6.15 -23.04, -5.91 -25.65, -5.56 -28.33 C-5.2 -31.02, -4.83 -31.78, -3.08 -34.42 C-1.33 -37.05, 2.1 -41.65, 4.95 -44.14 C7.8 -46.64, 11.02 -48.07, 14.02 -49.37 C17.03 -50.67, 18.81 -51.5, 22.98 -51.95 C27.15 -52.4, 33.68 -52.66, 39.04 -52.08 C44.39 -51.51, 51.69 -49.6, 55.12 -48.48 C58.54 -47.35, 57.06 -48.91, 59.58 -45.35 C62.09 -41.79, 68.43 -30.16, 70.2 -27.12 M0 0 C-0.87 -3.05, -4.3 -13.6, -5.22 -18.32 C-6.15 -23.04, -5.91 -25.65, -5.56 -28.33 C-5.2 -31.02, -4.83 -31.78, -3.08 -34.42 C-1.33 -37.05, 2.1 -41.65, 4.95 -44.14 C7.8 -46.64, 11.02 -48.07, 14.02 -49.37 C17.03 -50.67, 18.81 -51.5, 22.98 -51.95 C27.15 -52.4, 33.68 -52.66, 39.04 -52.08 C44.39 -51.51, 51.69 -49.6, 55.12 -48.48 C58.54 -47.35, 57.06 -48.91, 59.58 -45.35 C62.09 -41.79, 68.43 -30.16, 70.2 -27.12" stroke="#1864ab" stroke-width="1" fill="none"></path></g></g><g stroke-linecap="round"><g transform="translate(429.80410967217404 441.35162861070796) rotate(0 29.926573626911363 6.995142669672276)"><path d="M0 0 C1.46 -0.94, 5.23 -4.33, 8.74 -5.65 C12.26 -6.96, 14.7 -7.97, 21.09 -7.88 C27.48 -7.79, 41.16 -6.68, 47.09 -5.1 C53.02 -3.51, 54.53 -2.86, 56.66 1.63 C58.78 6.13, 59.32 18.5, 59.85 21.87 M0 0 C1.46 -0.94, 5.23 -4.33, 8.74 -5.65 C12.26 -6.96, 14.7 -7.97, 21.09 -7.88 C27.48 -7.79, 41.16 -6.68, 47.09 -5.1 C53.02 -3.51, 54.53 -2.86, 56.66 1.63 C58.78 6.13, 59.32 18.5, 59.85 21.87" stroke="#1864ab" stroke-width="1" fill="none"></path></g></g><g stroke-linecap="round"><g transform="translate(504.72897868985353 521.190140793381) rotate(0 7.390488672724018 -31.354798595383784)"><path d="M0 0 C2.35 -1.27, 10.14 -4.58, 14.09 -7.62 C18.03 -10.67, 21.54 -14.84, 23.65 -18.26 C25.76 -21.69, 26.23 -24.15, 26.75 -28.16 C27.26 -32.16, 27.57 -38.11, 26.75 -42.31 C25.94 -46.5, 24.24 -50.18, 21.87 -53.32 C19.49 -56.46, 15.66 -59.59, 12.51 -61.14 C9.35 -62.69, 6.34 -62.85, 2.93 -62.63 C-0.48 -62.42, -5.41 -60.8, -7.97 -59.87 C-10.54 -58.93, -11.72 -57.49, -12.47 -57.02 M0 0 C2.35 -1.27, 10.14 -4.58, 14.09 -7.62 C18.03 -10.67, 21.54 -14.84, 23.65 -18.26 C25.76 -21.69, 26.23 -24.15, 26.75 -28.16 C27.26 -32.16, 27.57 -38.11, 26.75 -42.31 C25.94 -46.5, 24.24 -50.18, 21.87 -53.32 C19.49 -56.46, 15.66 -59.59, 12.51 -61.14 C9.35 -62.69, 6.34 -62.85, 2.93 -62.63 C-0.48 -62.42, -5.41 -60.8, -7.97 -59.87 C-10.54 -58.93, -11.72 -57.49, -12.47 -57.02" stroke="#1864ab" stroke-width="1" fill="none"></path></g></g><g transform="translate(254.49761453142446 432.5) rotate(0 5.5 11.5)"><text x="5.5" y="18" font-family="Helvetica, Segoe UI Emoji" font-size="20px" fill="#2b8a3e" text-anchor="middle" style="white-space: pre;" direction="ltr">4</text></g><g transform="translate(251.99761453142446 475) rotate(0 5.5 11.5)"><text x="5.5" y="18" font-family="Helvetica, Segoe UI Emoji" font-size="20px" fill="#2b8a3e" text-anchor="middle" style="white-space: pre;" direction="ltr">5</text></g></svg>