<svg xmlns="http://www.w3.org/2000/svg" xmlns:xlink="http://www.w3.org/1999/xlink" viewBox="0 0 106 81" fill="#fff" fill-rule="evenodd" stroke="#000" stroke-linecap="round" stroke-linejoin="round"><use xlink:href="#A" x=".5" y=".5"/><symbol id="A" overflow="visible"><path d="M88.396 0l.224 5.361c1.68 0 2.716.412 3.556 1.237.644.825 1.064 2.282 1.064 4.124v20.426c0 4.729 1.68 7.615 4.62 8.853-3.164 1.237-4.62 4.124-4.62 8.88v20.619c0 3.492-1.68 5.141-4.844 5.141V80c4.424 0 7.588-.825 9.464-2.474s2.716-4.536 2.716-8.44V48.248c0-3.712 1.484-5.553 4.424-5.553v-5.361c-2.94 0-4.424-1.869-4.424-5.361V10.529c0-3.931-.84-6.598-2.716-8.247C95.984.825 92.82 0 88.396 0zM63.84 64.962c0 2.254 1.904 4.124 4.2 4.124h9.66c2.324 0 4.2-1.87 4.2-4.124v-9.484c0-2.282-1.876-4.124-4.2-4.124h-2.296v-3.519c0-4.124-3.36-7.835-8.204-9.265l-8.82-1.87c-1.904-.577-3.276-1.539-3.948-2.694a7.97 7.97 0 0 0 .168-1.622v-.412-5.993h2.744c2.296 0 4.2-1.842 4.2-4.124V10.942c0-2.282-1.904-4.124-4.2-4.124H46.2c-2.296 0-4.2 1.842-4.2 4.124v10.914c0 2.282 1.904 4.124 4.2 4.124h2.52v5.993.412c0 .55.056 1.072.168 1.622-.672 1.155-2.044 2.117-3.948 2.694l-7.14 1.457c-4.816 1.43-8.176 5.141-8.176 9.265v3.519H27.3c-2.296 0-4.2 1.842-4.2 4.124v9.484c0 2.254 1.904 4.124 4.2 4.124h9.66c2.324 0 4.2-1.869 4.2-4.124v-9.484c0-2.282-1.876-4.124-4.2-4.124h-2.1v-3.519c0-1.842 1.68-3.491 4.424-4.316l7.14-1.65c2.044-.55 3.836-1.512 5.208-2.777 1.4 1.292 3.192 2.337 5.264 2.969l8.848 1.869c2.716.825 4.396 2.474 4.396 4.316v3.519h-2.1c-2.296 0-4.2 1.842-4.2 4.124v9.484zm-8.176-52.371v7.615H47.88v-7.615h7.784zM16.576 80l-.196-5.361c-1.68 0-2.744-.412-3.584-1.237-.616-.825-1.036-2.254-1.036-4.124V48.88c0-4.756-1.68-7.643-4.62-8.88 3.136-1.237 4.62-4.124 4.62-8.852V10.529c0-3.519 1.68-5.168 4.816-5.168V0C12.18 0 9.016.632 7.14 2.282s-2.716 4.536-2.716 8.44v21.031c0 3.711-1.484 5.58-4.424 5.58v5.361c2.94 0 4.424 1.842 4.424 5.361v21.443c0 3.904.84 6.598 2.716 8.248C9.016 79.176 12.18 80 16.576 80z" fill="#0078d7" stroke="none"/></symbol></svg>