<svg xmlns="http://www.w3.org/2000/svg" xmlns:xlink="http://www.w3.org/1999/xlink" viewBox="0 0 151 81" fill="#fff" fill-rule="evenodd" stroke="#000" stroke-linecap="round" stroke-linejoin="round"><use xlink:href="#A" x=".5" y=".5"/><symbol id="A" overflow="visible"><path d="M150 40l-9.091 8.972L109.47 80l-5.303-5.234L139.773 40 104.167 5.234 109.47 0l31.439 31.028zM0 40l9.47 8.972L40.53 80l5.303-5.234L10.227 40 45.833 5.234 40.53 0 9.47 31.028zm56.818 0c0-4.86-4.167-8.972-9.091-8.972-5.303 0-9.091 4.112-9.091 8.972s4.167 8.972 9.091 8.972c5.303 0 9.091-4.112 9.091-8.972zM75 48.972c4.924 0 9.091-4.112 9.091-8.972S79.924 31.028 75 31.028 65.909 35.14 65.909 40s4.167 8.972 9.091 8.972zm27.273 0c4.924 0 9.091-4.112 9.091-8.972s-4.167-8.972-9.091-8.972c-5.303 0-9.091 4.112-9.091 8.972s3.788 8.972 9.091 8.972z" fill="#0078d7" stroke="none"/></symbol></svg>